<svg width="58" height="58" viewBox="0 0 58 58" fill="none" xmlns="http://www.w3.org/2000/svg">
<path d="M47.1617 13.6208C46.6925 13.6208 46.3121 14.0012 46.3121 14.4705V52.6102C46.3121 52.6425 46.286 52.6686 46.2537 52.6686H16.2871C15.8179 52.6686 15.4375 53.049 15.4375 53.5182C15.4375 53.9875 15.8179 54.3679 16.2871 54.3679H46.2537C47.2229 54.3679 48.0114 53.5794 48.0114 52.6102V14.4705C48.0114 14.0012 47.631 13.6208 47.1617 13.6208Z" fill="#383838"/>
<path d="M49.886 3.63226H42.0652L39.2138 0.780849C38.7102 0.277313 38.0408 0 37.3287 0H8.11436C7.14513 0 6.35669 0.788439 6.35669 1.75768V52.6101C6.35669 53.5793 7.14513 54.3677 8.11436 54.3677H9.98895V56.2423C9.98895 57.2116 10.7774 58 11.7466 58H49.886C50.8552 58 51.6437 57.2116 51.6437 56.2423V5.39005C51.6437 4.42081 50.8552 3.63226 49.886 3.63226ZM38.0225 1.99262L46.0187 9.98882H38.0809C38.0487 9.98882 38.0225 9.96265 38.0225 9.93037V1.99262ZM49.9445 56.2424C49.9445 56.2747 49.9183 56.3009 49.886 56.3009H11.7466C11.7143 56.3009 11.6882 56.2747 11.6882 56.2424V54.3679H12.6545C13.1237 54.3679 13.5041 53.9875 13.5041 53.5182C13.5041 53.049 13.1237 52.6686 12.6545 52.6686H8.11436C8.08208 52.6686 8.05591 52.6425 8.05591 52.6102V1.75768C8.05591 1.72539 8.08208 1.69922 8.11436 1.69922H36.3233V9.93037C36.3233 10.8996 37.1117 11.688 38.0809 11.688H47.1618C47.631 11.688 48.0114 11.3076 48.0114 10.8384V10.6827C48.0114 9.9707 47.7341 9.3012 47.2306 8.79767L43.7644 5.33148H49.886C49.9183 5.33148 49.9445 5.35765 49.9445 5.38993V56.2424Z" fill="#383838"/>
<path d="M23.2444 9.70588C22.9126 9.37408 22.3747 9.37408 22.043 9.70588L17.2365 14.5123C17.2137 14.5351 17.1766 14.5351 17.1538 14.5123L15.2378 12.5963H16.7127C17.1819 12.5963 17.5623 12.2159 17.5623 11.7466C17.5623 11.2774 17.1819 10.897 16.7127 10.897H14.4709C14.1992 10.897 13.9428 10.9608 13.7128 11.0714L13.2555 10.6141C12.9237 10.2823 12.3857 10.2823 12.054 10.6141C11.7222 10.9459 11.7222 11.4838 12.054 11.8155L12.7219 12.4834C12.7165 12.5397 12.7133 12.5968 12.7133 12.6546V18.1031C12.7133 19.0723 13.5018 19.8608 14.471 19.8608H19.9195C20.8887 19.8608 21.6772 19.0723 21.6772 18.1031V12.4746L23.2444 10.9073C23.5762 10.5755 23.5762 10.0376 23.2444 9.70588ZM19.978 18.1032C19.978 18.1355 19.9518 18.1617 19.9195 18.1617H14.471C14.4387 18.1617 14.4125 18.1355 14.4125 18.1032V14.1738L15.9524 15.7137C16.2951 16.0563 16.7451 16.2277 17.1953 16.2277C17.6454 16.2277 18.0954 16.0563 18.4381 15.7137L19.978 14.1738V18.1032Z" fill="#383838"/>
<path d="M19.9191 22.7019H14.4706C13.5013 22.7019 12.7129 23.4903 12.7129 24.4596V29.9081C12.7129 30.8773 13.5013 31.6657 14.4706 31.6657H19.9191C20.8883 31.6657 21.6767 30.8773 21.6767 29.9081V24.4596C21.6767 23.4905 20.8883 22.7019 19.9191 22.7019ZM19.9775 29.9081C19.9775 29.9404 19.9514 29.9665 19.9191 29.9665H14.4706C14.4383 29.9665 14.4121 29.9404 14.4121 29.9081V24.4596C14.4121 24.4273 14.4383 24.4011 14.4706 24.4011H19.9191C19.9514 24.4011 19.9775 24.4273 19.9775 24.4596V29.9081Z" fill="#383838"/>
<path d="M19.9191 34.507H14.4706C13.5013 34.507 12.7129 35.2954 12.7129 36.2646V41.7131C12.7129 42.6824 13.5013 43.4708 14.4706 43.4708H19.9191C20.8883 43.4708 21.6767 42.6823 21.6767 41.7131V36.2646C21.6767 35.2954 20.8883 34.507 19.9191 34.507ZM19.9775 41.7131C19.9775 41.7454 19.9514 41.7716 19.9191 41.7716H14.4706C14.4383 41.7716 14.4121 41.7453 14.4121 41.7131V36.2646C14.4121 36.2323 14.4383 36.2062 14.4706 36.2062H19.9191C19.9514 36.2062 19.9775 36.2323 19.9775 36.2646V41.7131Z" fill="#383838"/>
<path d="M33.5404 12.7131H25.3677C24.8985 12.7131 24.5181 13.0935 24.5181 13.5627C24.5181 14.032 24.8984 14.4124 25.3677 14.4124H33.5404C34.0096 14.4124 34.39 14.032 34.39 13.5627C34.39 13.0935 34.0096 12.7131 33.5404 12.7131Z" fill="#383838"/>
<path d="M40.805 16.3455H25.3677C24.8985 16.3455 24.5181 16.7259 24.5181 17.1951C24.5181 17.6643 24.8984 18.0447 25.3677 18.0447H40.805C41.2742 18.0447 41.6546 17.6643 41.6546 17.1951C41.6546 16.7259 41.2743 16.3455 40.805 16.3455Z" fill="#383838"/>
<path d="M33.5404 24.5182H25.3677C24.8985 24.5182 24.5181 24.8986 24.5181 25.3678C24.5181 25.837 24.8984 26.2174 25.3677 26.2174H33.5404C34.0096 26.2174 34.39 25.837 34.39 25.3678C34.39 24.8986 34.0096 24.5182 33.5404 24.5182Z" fill="#383838"/>
<path d="M40.805 28.1505H25.3677C24.8985 28.1505 24.5181 28.5309 24.5181 29.0001C24.5181 29.4693 24.8984 29.8497 25.3677 29.8497H40.805C41.2742 29.8497 41.6546 29.4693 41.6546 29.0001C41.6546 28.5309 41.2743 28.1505 40.805 28.1505Z" fill="#383838"/>
<path d="M33.5404 36.3231H25.3677C24.8985 36.3231 24.5181 36.7035 24.5181 37.1727C24.5181 37.6419 24.8984 38.0223 25.3677 38.0223H33.5404C34.0096 38.0223 34.39 37.6419 34.39 37.1727C34.39 36.7035 34.0096 36.3231 33.5404 36.3231Z" fill="#383838"/>
<path d="M40.805 39.9554H25.3677C24.8985 39.9554 24.5181 40.3358 24.5181 40.8051C24.5181 41.2743 24.8984 41.6547 25.3677 41.6547H40.805C41.2742 41.6547 41.6546 41.2743 41.6546 40.8051C41.6546 40.3358 41.2743 39.9554 40.805 39.9554Z" fill="#383838"/>
</svg>
