<svg width="90" height="90" viewBox="0 0 90 90" fill="none" xmlns="http://www.w3.org/2000/svg">
<path d="M67.5 46.4062C63.945 46.4062 60.5981 47.2992 57.6562 48.8587V41.1427C60.5981 42.7008 63.945 43.5938 67.5 43.5938C79.1311 43.5938 88.5938 34.1311 88.5938 22.5C88.5938 10.8689 79.1311 1.40625 67.5 1.40625C59.2552 1.40625 52.1198 6.17203 48.652 13.0823L34.3097 2.51297C32.3691 1.08422 29.5059 1.08281 27.5653 2.51437L1.40625 21.7898V29.5312H4.21875V57.0206C2.43984 60.113 1.40625 63.6848 1.40625 67.5C1.40625 79.1311 10.8689 88.5938 22.5 88.5938C34.1311 88.5938 43.5938 79.1311 43.5938 67.5C43.5938 66.0558 43.4461 64.6453 43.1691 63.2812H46.8323C46.5539 64.6453 46.4062 66.0558 46.4062 67.5C46.4062 79.1311 55.8689 88.5938 67.5 88.5938C79.1311 88.5938 88.5938 79.1311 88.5938 67.5C88.5938 55.8689 79.1311 46.4062 67.5 46.4062ZM67.5 4.21875C77.58 4.21875 85.7812 12.42 85.7812 22.5C85.7812 32.58 77.58 40.7812 67.5 40.7812C57.42 40.7812 49.2188 32.58 49.2188 22.5C49.2188 12.42 57.42 4.21875 67.5 4.21875ZM46.478 23.9062C46.5412 24.8597 46.6453 25.8033 46.8323 26.7188H32.3438V23.9062H46.478ZM38.7309 9.26437L35.1562 13.5534V18.2812H37.9688V16.3378L41.5589 18.1322L42.8175 15.6164L38.7816 13.5984L41.0006 10.935L47.5355 15.75C46.9603 17.4459 46.6031 19.2361 46.4794 21.0923H32.3438V4.62797C32.4408 4.68141 32.5519 4.71094 32.6419 4.77703L38.7309 9.26437ZM29.2331 4.77844C29.3231 4.71234 29.4328 4.68281 29.5312 4.62937V21.0938H7.09031L17.3334 13.5464L18.6863 16.702L26.4431 18.2545L26.9958 15.4969L20.6902 14.2369L19.6594 11.8336L29.2331 4.77844ZM4.21875 23.9062H29.5312V26.7188H4.21875V23.9062ZM7.03125 29.5312H29.5312V47.6367C28.6172 47.3119 27.6848 47.0278 26.7188 46.8309V32.3438H9.84375V50.6644C8.83125 51.428 7.89047 52.2773 7.03125 53.2069V29.5312ZM23.9062 46.478C23.4394 46.447 22.9753 46.4062 22.5 46.4062C18.945 46.4062 15.5981 47.2992 12.6562 48.8587V35.1562H23.9062V46.478ZM22.5 85.7812C12.42 85.7812 4.21875 77.58 4.21875 67.5C4.21875 57.42 12.42 49.2188 22.5 49.2188C32.58 49.2188 40.7812 57.42 40.7812 67.5C40.7812 77.58 32.58 85.7812 22.5 85.7812ZM42.3633 60.4688C40.5858 55.4625 36.9844 51.3183 32.3438 48.8587V29.5312H47.6367C48.3609 31.5689 49.3861 33.4603 50.6644 35.1562H35.1562V49.2188H52.0312V36.7931C52.8905 37.7227 53.8312 38.572 54.8438 39.3356V50.6658C51.5658 53.1352 49.0359 56.5312 47.6367 60.4688H42.3633ZM49.2188 37.9688V46.4062H37.9688V37.9688H49.2188ZM67.5 85.7812C57.42 85.7812 49.2188 77.58 49.2188 67.5C49.2188 57.42 57.42 49.2188 67.5 49.2188C77.58 49.2188 85.7812 57.42 85.7812 67.5C85.7812 77.58 77.58 85.7812 67.5 85.7812Z" fill="#383838"/>
<path d="M30.9375 54.8438H19.6875C17.8566 54.8438 16.3097 56.0236 15.7275 57.6562H9.84375V65.7858L21.0938 68.5983V71.9775C19.4611 72.5597 18.2812 74.1066 18.2812 75.9375V78.75C18.2812 81.0759 20.1741 82.9688 22.5 82.9688C24.8259 82.9688 26.7188 81.0759 26.7188 78.75V75.9375C26.7188 74.1066 25.5389 72.5597 23.9062 71.9775V66.4003L12.6562 63.5878V60.4688H15.7275C16.3097 62.1014 17.8566 63.2812 19.6875 63.2812H30.9375C33.2634 63.2812 35.1562 61.3884 35.1562 59.0625C35.1562 56.7366 33.2634 54.8438 30.9375 54.8438ZM23.9062 78.75C23.9062 79.5263 23.2748 80.1562 22.5 80.1562C21.7252 80.1562 21.0938 79.5263 21.0938 78.75V75.9375C21.0938 75.1612 21.7252 74.5312 22.5 74.5312C23.2748 74.5312 23.9062 75.1612 23.9062 75.9375V78.75ZM30.9375 60.4688H19.6875C18.9127 60.4688 18.2812 59.8387 18.2812 59.0625C18.2812 58.2863 18.9127 57.6562 19.6875 57.6562H30.9375C31.7123 57.6562 32.3438 58.2863 32.3438 59.0625C32.3438 59.8387 31.7123 60.4688 30.9375 60.4688Z" fill="#383838"/>
<path d="M61.875 26.7188C62.6034 26.7188 63.3319 26.6203 64.0505 26.422L71.5486 33.9202C72.3445 34.7175 73.4048 35.1562 74.5312 35.1562C75.6577 35.1562 76.718 34.7161 77.5139 33.9202C78.3112 33.1242 78.75 32.0639 78.75 30.9375C78.75 29.8111 78.3112 28.7508 77.5139 27.9548L70.0158 20.4567C70.2127 19.7381 70.3125 19.0111 70.3125 18.2812C70.3125 13.628 66.5283 9.84375 61.875 9.84375H61.2928L58.4803 12.6562L61.8244 16.0003C61.6092 17.1267 60.7191 18.0155 59.5955 18.2306L56.25 14.8866L53.4375 17.6991V18.2812C53.4375 22.9345 57.2217 26.7188 61.875 26.7188ZM58.4803 21.0938H59.0625C62.1647 21.0938 64.6875 18.5709 64.6875 15.4688V14.8866L62.4909 12.6886C65.3034 12.9966 67.5 15.3872 67.5 18.2812C67.5 18.9605 67.365 19.6495 67.1006 20.3245L66.7631 21.1809L75.5255 29.9419C75.7941 30.2119 75.9375 30.5564 75.9375 30.9375C75.9375 31.3186 75.7941 31.6631 75.5255 31.9317C74.9855 32.4703 74.077 32.4703 73.537 31.9317L64.7761 23.1708L63.9197 23.5069C63.2419 23.7712 62.5542 23.9062 61.875 23.9062C58.9809 23.9062 56.5917 21.7097 56.2837 18.8972L58.4803 21.0938Z" fill="#383838"/>
<path d="M63.263 58.9627L60.7767 59.9541L66.9178 66.0938L63.6694 69.3436C62.107 68.6391 60.1397 68.895 58.8938 70.1423L56.0813 72.9548C55.2825 73.7508 54.8438 74.8111 54.8438 75.9375C54.8438 77.0639 55.2825 78.1242 56.0798 78.9202C56.8758 79.7175 57.9361 80.1562 59.0625 80.1562C60.1889 80.1562 61.2492 79.7161 62.0452 78.9202L64.8577 76.1077C65.655 75.3117 66.0938 74.2514 66.0938 73.125C66.0938 72.4866 65.9391 71.8777 65.6719 71.318L68.9062 68.0836L75.0445 74.2219L76.0387 71.7384C77.8373 67.237 78.75 62.4994 78.75 57.6562V56.25H77.3438C72.4964 56.25 67.7587 57.1627 63.263 58.9627ZM62.8692 74.1192L60.0567 76.9317C59.5167 77.4703 58.6083 77.4703 58.0683 76.9317C57.7997 76.6631 57.6562 76.3186 57.6562 75.9375C57.6562 75.5564 57.7997 75.2119 58.0683 74.9433L60.8808 72.1308C61.1508 71.8622 61.4939 71.7188 61.875 71.7188C62.2561 71.7188 62.5992 71.8622 62.8692 72.1308C63.1378 72.3994 63.2812 72.7439 63.2812 73.125C63.2812 73.5061 63.1378 73.8506 62.8692 74.1192ZM73.9898 69.1875L65.8125 61.0102C69.0722 59.8739 72.457 59.2312 75.9094 59.092C75.7687 62.543 75.1261 65.9278 73.9898 69.1875Z" fill="#383838"/>
</svg>
