<svg width="90" height="90" viewBox="0 0 90 90" fill="none" xmlns="http://www.w3.org/2000/svg">
<path d="M24.0651 41.9381C20.7526 41.9381 18.067 44.6237 18.067 47.9363C18.067 51.2491 20.7526 53.9344 24.0651 53.9344C27.3772 53.9344 30.0632 51.2491 30.0632 47.9363C30.0632 44.6237 27.3772 41.9381 24.0651 41.9381ZM24.0651 50.9351C22.4088 50.9351 21.0662 49.5921 21.0662 47.9363C21.0662 46.2796 22.4088 44.937 24.0651 44.937C25.721 44.937 27.0636 46.2796 27.0636 47.9363C27.0636 49.5921 25.721 50.9351 24.0651 50.9351Z" fill="#383838"/>
<path d="M62.6675 24.1529C66.3045 17.2124 64.5572 8.67132 58.4872 3.71612C52.4167 -1.23871 43.6984 -1.23871 37.628 3.71612C31.5576 8.67132 29.811 17.2124 33.4472 24.1529C32.1935 24.2677 30.948 24.4597 29.7168 24.7278C27.294 20.5881 22.8637 18.038 18.067 18.0226C17.2387 18.0226 16.5674 18.6932 16.5674 19.5219V31.2282C11.5003 35.5663 8.03008 41.4744 6.7078 48.0132H1.57188C0.743941 48.0132 0.0722542 48.6841 0.0722542 49.5128V61.5091C0.0722542 62.3374 0.743941 63.0083 1.57188 63.0083H7.47737C9.73829 70.1601 14.5835 76.212 21.0662 79.9846V88.5008C21.0662 89.3288 21.7379 90.0001 22.5655 90.0001H36.0613C36.8896 90.0001 37.5613 89.3288 37.5613 88.5008V84.0019H58.5545V88.5008C58.5545 89.3288 59.2259 90.0001 60.0534 90.0001H73.5496C74.378 90.0001 75.0493 89.3288 75.0493 88.5008V79.9846C83.4679 75.119 89.0026 66.4711 89.8941 56.7877C89.9905 56.369 90.041 55.9405 90.0448 55.5106V54.0117C90.0222 38.4729 78.1457 25.5196 62.6675 24.1529ZM48.0576 3.02711C55.5112 3.02711 61.5534 9.06966 61.5534 16.5234C61.5534 23.9759 55.5112 30.0192 48.0576 30.0192C40.6042 30.0192 34.5621 23.9759 34.5621 16.5234C34.57 9.07267 40.6073 3.03539 48.0576 3.02711ZM86.9435 56.2485C86.5564 57.6958 85.1603 58.636 83.6735 58.4503C82.1871 58.264 81.0658 57.0091 81.047 55.5106V54.0117H78.0485V55.5106C78.0485 58.8231 80.7338 61.5091 84.0463 61.5091C84.7443 61.5027 85.4359 61.3728 86.0884 61.1258C84.14 68.2595 79.3497 74.2809 72.8373 77.7843C72.3524 78.046 72.05 78.5531 72.05 79.1047V87.0012H61.5534V82.5023C61.5534 81.6736 60.8817 81.0034 60.0534 81.0034H36.0613C35.233 81.0034 34.5621 81.6736 34.5621 82.5023V87.0012H24.0651V79.1047C24.0651 78.5531 23.7624 78.046 23.2782 77.7843C16.7797 74.2632 12.0003 68.2425 10.047 61.1141C9.86932 60.4624 9.27745 60.0087 8.60049 60.0098H3.07188V51.0121H7.9593C8.69688 51.0117 9.32489 50.4759 9.44048 49.7478C10.4736 43.2071 13.8832 37.2764 19.0143 33.0911C19.3637 32.8061 19.5662 32.3795 19.5662 31.9289V21.1325C23.0647 21.6521 26.0704 23.8889 27.5722 27.0919C27.8772 27.7459 28.6058 28.0904 29.3061 27.91C31.2869 27.3946 33.3192 27.1043 35.3655 27.0448C36.311 28.1755 37.4017 29.1755 38.611 30.0192H33.0621V33.0181H63.0527V30.0192H57.5124C58.7138 29.1774 59.7997 28.18 60.7402 27.0542C75.3618 27.4345 87.0229 39.3856 87.0451 54.0117C87.0451 54.761 87.0033 55.5106 86.9435 56.2485Z" fill="#383838"/>
<path d="M48.0578 10.5253V7.52563C43.0909 7.53053 39.066 11.5561 39.0604 16.5234H42.06C42.06 13.2101 44.7456 10.5253 48.0578 10.5253Z" fill="#383838"/>
<path d="M48.0571 25.5204C53.0244 25.5148 57.0492 21.4895 57.0545 16.5234H54.0553C54.0553 19.8359 51.3693 22.5208 48.0571 22.5208V25.5204Z" fill="#383838"/>
<path d="M73.5711 13.7694C73.6923 14.4912 74.3173 15.0187 75.0493 15.0187C75.7804 15.0187 76.4054 14.4912 76.5274 13.7694C76.9359 11.3267 78.8497 9.41214 81.2933 9.00438C82.0147 8.88202 82.5429 8.25702 82.5429 7.52546C82.5429 6.79354 82.0147 6.16929 81.2933 6.04655C78.8497 5.63879 76.9359 3.72426 76.5274 1.28224C76.4054 0.560099 75.7804 0.0318604 75.0493 0.0318604C74.3173 0.0318604 73.6923 0.560099 73.5711 1.28224C73.1618 3.72426 71.2481 5.63879 68.8053 6.04655C68.0839 6.16929 67.5556 6.79354 67.5556 7.52546C67.5556 8.25702 68.0839 8.88202 68.8053 9.00438C71.2481 9.41214 73.1618 11.3267 73.5711 13.7694ZM75.0493 5.38352C75.6336 6.2156 76.358 6.94037 77.1905 7.52546C76.358 8.11018 75.6336 8.83495 75.0493 9.66703C74.4642 8.83495 73.7398 8.11018 72.9077 7.52546C73.7398 6.94037 74.4642 6.2156 75.0493 5.38352Z" fill="#383838"/>
</svg>
