<svg width="90" height="90" viewBox="0 0 90 90" fill="none" xmlns="http://www.w3.org/2000/svg">
<path d="M52.8522 49.6028V11.807C52.8522 5.28608 47.5661 0 41.0452 0C34.5243 0 29.2382 5.28608 29.2382 11.807V49.586C19.0329 56.0971 16.038 69.6485 22.549 79.8537C26.5671 86.1514 33.516 89.9692 40.9864 89.9832L41.1039 90C53.2094 89.9773 63.0043 80.1455 62.9817 68.0402C62.9676 60.5698 59.1498 53.6209 52.8522 49.6028ZM31.8228 84.1657C22.9365 79.0353 19.892 67.6724 25.0224 58.7864C26.6531 55.962 28.9984 53.6167 31.8228 51.986C32.3441 51.685 32.6643 51.1278 32.662 50.5259V11.807C32.662 7.14 36.4453 3.35664 41.1123 3.35664C45.7793 3.35664 49.5626 7.14 49.5626 11.807V50.5259C49.5603 51.1278 49.8805 51.685 50.4018 51.986C59.2881 57.1164 62.3326 68.4793 57.2022 77.3654C52.0717 86.2517 40.7089 89.2964 31.8228 84.1657Z" fill="#383838"/>
<path d="M42.7823 56.014V30.5538C42.7823 29.627 42.0308 28.8755 41.104 28.8755C40.1771 28.8755 39.4257 29.627 39.4257 30.5538V56.014C33.0856 56.9232 28.6829 62.7998 29.5922 69.1399C30.4129 74.8626 35.3228 79.1068 41.104 79.0909C47.5089 79.1085 52.7155 73.9307 52.7333 67.5258C52.7492 61.7446 48.505 56.8347 42.7823 56.014ZM41.104 75.7175C36.5528 75.7175 32.8634 72.0281 32.8634 67.4769C32.8727 62.9297 36.5566 59.2456 41.104 59.2363C45.6552 59.2363 49.3445 62.9257 49.3445 67.4769C49.3445 72.0281 45.655 75.7175 41.104 75.7175Z" fill="#383838"/>
<path d="M69.2157 11.5385H58.7262C57.7994 11.5385 57.0479 12.2899 57.0479 13.2168C57.0479 14.1436 57.7994 14.8951 58.7262 14.8951H69.2157C70.1426 14.8951 70.894 14.1436 70.894 13.2168C70.894 12.2899 70.1426 11.5385 69.2157 11.5385Z" fill="#383838"/>
<path d="M66.9836 19.9301H60.8242C59.8973 19.9301 59.1458 20.6815 59.1458 21.6084C59.1458 22.5352 59.8973 23.2867 60.8242 23.2867H66.9836C67.9105 23.2867 68.6619 22.5352 68.6619 21.6084C68.6619 20.6815 67.9105 19.9301 66.9836 19.9301Z" fill="#383838"/>
<path d="M69.2157 28.3217H58.7262C57.7994 28.3217 57.0479 29.0731 57.0479 30C57.0479 30.9268 57.7994 31.6783 58.7262 31.6783H69.2157C70.1426 31.6783 70.894 30.9268 70.894 30C70.894 29.0731 70.1426 28.3217 69.2157 28.3217Z" fill="#383838"/>
<path d="M66.9836 36.7133H60.8242C59.8973 36.7133 59.1458 37.4647 59.1458 38.3916C59.1458 39.3184 59.8973 40.0699 60.8242 40.0699H66.9836C67.9105 40.0699 68.6619 39.3184 68.6619 38.3916C68.6619 37.4647 67.9105 36.7133 66.9836 36.7133Z" fill="#383838"/>
<path d="M69.2157 45.1049H58.7262C57.7994 45.1049 57.0479 45.8563 57.0479 46.7832C57.0479 47.71 57.7994 48.4615 58.7262 48.4615H69.2157C70.1426 48.4615 70.894 47.71 70.894 46.7832C70.894 45.8563 70.1426 45.1049 69.2157 45.1049Z" fill="#383838"/>
</svg>
