<svg width="90" height="90" viewBox="0 0 90 90" fill="none" xmlns="http://www.w3.org/2000/svg">
<g clip-path="url(#clip0)">
<path d="M12.3213 73.4371C11.5932 73.4371 11.0029 74.0274 11.0029 74.7555C11.0029 75.4835 11.5932 76.0738 12.3213 76.0738C16.4119 76.0738 19.7401 72.3207 19.7401 67.7075C19.7401 63.0943 16.4121 59.3412 12.3213 59.3412C8.23051 59.3412 4.90244 63.0943 4.90244 67.7075C4.90244 68.4356 5.49272 69.0259 6.2208 69.0259C6.94889 69.0259 7.53916 68.4356 7.53916 67.7075C7.53916 64.5482 9.6844 61.9779 12.3213 61.9779C14.9582 61.9779 17.1034 64.5482 17.1034 67.7075C17.1034 70.8668 14.9582 73.4371 12.3213 73.4371Z" fill="#383838"/>
<path d="M26.3305 53.4002C27.0585 53.4002 27.6488 52.8099 27.6488 52.0818C27.6488 51.3537 27.0585 50.7635 26.3305 50.7635C23.6732 50.7635 21.5112 48.174 21.5112 44.991C21.5112 41.8079 23.673 39.2185 26.3305 39.2185C28.9879 39.2185 31.1497 41.8079 31.1497 44.991C31.1497 45.7191 31.7399 46.3094 32.468 46.3094C33.1961 46.3094 33.7864 45.7191 33.7864 44.991C33.7864 40.3541 30.4418 36.5818 26.3305 36.5818C22.2191 36.5818 18.8745 40.3541 18.8745 44.991C18.8745 49.6279 22.2193 53.4002 26.3305 53.4002Z" fill="#383838"/>
<path d="M77.6795 53.6769H73.1391C74.8371 51.228 75.7758 48.1912 75.7758 44.99C75.7758 42.9038 75.3836 40.8961 74.61 39.0222C74.3319 38.3492 73.5609 38.0291 72.8884 38.3066C72.2153 38.5845 71.8951 39.3553 72.1728 40.0282C72.814 41.5814 73.1392 43.2508 73.1392 44.99C73.1392 46.2094 72.9773 47.3975 72.6678 48.5204H51.6872C50.9592 48.5204 50.3689 49.1107 50.3689 49.8388C50.3689 50.5669 50.9592 51.1571 51.6872 51.1571H71.6024C71.0907 52.0889 70.4589 52.9385 69.7189 53.6771H40.5545C40.5482 53.6771 40.5418 53.6773 40.5355 53.6773C38.3382 53.681 36.2739 54.343 34.4869 55.4991C37.0397 52.9265 38.6518 49.1694 38.6518 44.9914C38.6518 44.3612 38.6151 43.7406 38.5441 43.132H51.6872C52.4153 43.132 53.0056 42.5417 53.0056 41.8136C53.0056 41.0856 52.4153 40.4953 51.6872 40.4953H38.003C37.1695 37.6968 35.5802 35.2922 33.5134 33.5978H63.4553C65.5907 33.5978 67.6165 34.4022 69.3141 35.9237C69.8548 36.4084 70.6885 36.3657 71.1758 35.8221C71.6618 35.28 71.6163 34.4465 71.0742 33.9604C68.8852 31.9982 66.2507 30.9611 63.4553 30.9611H38.5392L37.1827 27.2271C40.0159 24.7191 41.9221 21.226 40.6345 17.6822C38.0988 10.7041 31.2506 8.65392 29.9034 8.31378C29.2379 8.14556 28.5478 8.39675 28.1457 8.95239C27.331 10.0781 23.3951 16.0473 25.9305 23.0256C27.216 26.5636 30.9125 28.0227 34.7043 28.1273L35.7339 30.9614H26.3776C26.3619 30.9614 26.3461 30.9613 26.3305 30.9613C19.5365 30.9613 14.0091 37.2553 14.0091 44.9918C14.0091 48.2687 15.0008 51.2868 16.6604 53.6775H12.3223C12.3158 53.6775 12.3093 53.6776 12.3028 53.6776C10.4019 53.6808 8.57936 54.163 6.88553 55.111C6.25025 55.4666 6.0235 56.2701 6.3791 56.9053C6.73488 57.5408 7.5382 57.7676 8.17348 57.4118C9.47443 56.6835 10.87 56.3142 12.3212 56.3142C17.6613 56.3142 22.0059 61.4254 22.0059 67.708C22.0059 73.9906 17.6613 79.1018 12.3212 79.1018C6.98115 79.1018 2.63672 73.9899 2.63672 67.7075C2.63672 65.2038 3.31541 62.8278 4.59949 60.8358C4.99395 60.2239 4.81764 59.4079 4.20574 59.0135C3.59385 58.6192 2.77787 58.7953 2.38342 59.4072C0.824062 61.8258 0 64.696 0 67.7075C0 75.4299 5.5074 81.7151 12.2848 81.7378C12.2973 81.7381 12.3098 81.7383 12.3223 81.7383H67.477C68.2051 81.7383 68.7953 81.148 68.7953 80.42C68.7953 79.6919 68.2051 79.1016 67.477 79.1016H47.7364C50.8467 76.5522 52.8755 72.3947 52.8755 67.7075C52.8755 66.6359 52.7694 65.5921 52.5688 64.5889H76.4851C77.2131 64.5889 77.8034 63.9986 77.8034 63.2706C77.8034 62.5425 77.2131 61.9522 76.4851 61.9522H51.7908C50.8943 59.6917 49.4866 57.748 47.7367 56.3135H77.6795C83.019 56.3135 87.3633 61.4249 87.3633 67.7076C87.3633 69.1239 87.1425 70.4808 86.7393 71.7328H70.551C69.8229 71.7328 69.2327 72.3231 69.2327 73.0512C69.2327 73.7793 69.8229 74.3696 70.551 74.3696H85.5311C83.7707 77.2343 80.907 79.1016 77.6795 79.1016H73.1347C72.4066 79.1016 71.8163 79.6919 71.8163 80.42C71.8163 81.148 72.4066 81.7383 73.1347 81.7383H77.6795C84.4729 81.7383 90 75.4441 90 67.7076C90 59.971 84.4731 53.6769 77.6795 53.6769ZM28.4087 22.1247C26.5969 17.1385 28.8454 12.732 29.9053 11.0567C31.7925 11.6607 36.3444 13.5957 38.1561 18.5824C39.0185 20.9556 37.4512 23.1991 36.1979 24.5166L32.7918 15.1406C32.5433 14.4563 31.7867 14.1031 31.1026 14.3517C30.4182 14.6004 30.0651 15.3566 30.3137 16.0409L33.7196 25.4164C31.9127 25.2108 29.2706 24.4966 28.4087 22.1247ZM26.3199 33.5975C26.3234 33.5975 26.3269 33.5976 26.3303 33.5976H26.376C31.6953 33.6266 36.0151 38.7266 36.0151 44.9912C36.0151 51.2737 31.6705 56.385 26.3305 56.385C20.9904 56.385 16.6458 51.2738 16.6458 44.9912C16.6458 38.7129 20.9846 33.6043 26.3199 33.5975ZM24.6428 67.7075C24.6428 63.6982 23.1583 60.0764 20.7824 57.5172C22.4404 58.4733 24.3125 59.0147 26.2932 59.0216C26.3057 59.0219 26.3181 59.0221 26.3308 59.0221H30.8839C29.2243 61.4127 28.2328 64.4307 28.2328 67.7076C28.2328 72.3948 30.2616 76.5524 33.3719 79.1018H19.5038C22.6139 76.5522 24.6428 72.3947 24.6428 67.7075ZM50.2388 67.7075C50.2388 73.9899 45.8942 79.1012 40.5541 79.1012C35.2141 79.1012 30.8695 73.9901 30.8695 67.7075C30.8695 61.4249 35.2141 56.3137 40.5541 56.3137C45.8942 56.3137 50.2388 61.425 50.2388 67.7075Z" fill="#383838"/>
<path d="M40.554 58.9834C39.8259 58.9834 39.2356 59.5737 39.2356 60.3018C39.2356 61.0298 39.8259 61.6201 40.554 61.6201C43.3616 61.6201 45.6458 64.3509 45.6458 67.7074C45.6458 71.064 43.3616 73.7947 40.554 73.7947C37.7464 73.7947 35.4623 71.064 35.4623 67.7074C35.4623 66.9793 34.872 66.3891 34.144 66.3891C33.4159 66.3891 32.8256 66.9793 32.8256 67.7074C32.8256 72.5179 36.2925 76.4314 40.554 76.4314C44.8155 76.4314 48.2826 72.5179 48.2826 67.7074C48.2826 62.897 44.8155 58.9834 40.554 58.9834Z" fill="#383838"/>
<path d="M59.6283 40.4951C58.9002 40.4951 58.31 41.0854 58.31 41.8135C58.31 42.5416 58.9002 43.1318 59.6283 43.1318H64.6182C65.3463 43.1318 65.9366 42.5416 65.9366 41.8135C65.9366 41.0854 65.3463 40.4951 64.6182 40.4951H59.6283Z" fill="#383838"/>
<path d="M57.2862 71.7328C56.5581 71.7328 55.9679 72.3231 55.9679 73.0511C55.9679 73.7792 56.5581 74.3695 57.2862 74.3695H61.4044C62.1325 74.3695 62.7228 73.7792 62.7228 73.0511C62.7228 72.3231 62.1325 71.7328 61.4044 71.7328H57.2862Z" fill="#383838"/>
</g>
<defs>
<clipPath id="clip0">
<rect width="90" height="90" fill="white"/>
</clipPath>
</defs>
</svg>
