<svg width="90" height="90" viewBox="0 0 90 90" fill="none" xmlns="http://www.w3.org/2000/svg">
<path d="M44.9999 2.8125C37.5446 2.81405 30.2228 4.79083 23.7797 8.54163C17.3366 12.2924 12.0022 17.6833 8.31963 24.1657C4.63702 30.648 2.73761 37.9903 2.81471 45.4452C2.89182 52.9001 4.9427 60.2016 8.7586 66.6063C8.56648 66.8392 8.45447 67.1277 8.43918 67.4292C8.42388 67.7307 8.50612 68.029 8.6737 68.2801L10.2663 70.669L3.49518 74.7316C3.25177 74.8777 3.05825 75.0939 2.94006 75.352C2.82186 75.6101 2.78454 75.8979 2.83298 76.1775C2.88142 76.4572 3.01337 76.7157 3.21147 76.919C3.40957 77.1223 3.66456 77.2609 3.9429 77.3165L9.78006 78.4839L9.3893 85.7051C9.37549 85.9601 9.43137 86.2141 9.55094 86.4397C9.67052 86.6653 9.84927 86.8541 10.068 86.9859C10.2868 87.1176 10.5373 87.1873 10.7926 87.1874C11.048 87.1876 11.2986 87.1182 11.5175 86.9868L22.2577 80.5356C29.0481 84.8788 36.94 87.1868 45.0006 87.1868C53.0611 87.1868 60.9531 84.8788 67.7434 80.5356L78.4836 86.9868C78.7025 87.1182 78.9531 87.1876 79.2085 87.1874C79.4638 87.1873 79.7143 87.1176 79.9331 86.9859C80.1519 86.8541 80.3306 86.6653 80.4502 86.4397C80.5698 86.2141 80.6256 85.9601 80.6118 85.7051L80.2211 78.4839L86.0582 77.3165C86.3366 77.2609 86.5915 77.1223 86.7896 76.919C86.9878 76.7157 87.1197 76.4572 87.1681 76.1775C87.2166 75.8979 87.1793 75.6101 87.0611 75.352C86.9429 75.0939 86.7493 74.8777 86.5059 74.7316L79.7343 70.669L81.3269 68.2801C81.4945 68.0289 81.5768 67.7304 81.5614 67.4288C81.546 67.1273 81.4339 66.8387 81.2416 66.6058C85.0588 60.2013 87.1107 52.8996 87.1884 45.4442C87.2661 37.9888 85.3668 30.6459 81.6839 24.1632C78.001 17.6805 72.666 12.2895 66.2222 8.5391C59.7783 4.78866 52.4557 2.81274 44.9999 2.8125ZM15.8851 66.16C24.9713 61.7987 34.9213 59.5345 44.9999 59.5345C55.0786 59.5345 65.0286 61.7987 74.1148 66.16L78.0874 68.0672L74.0299 74.1537C64.914 70.0054 55.0149 67.859 44.9996 67.859C34.9842 67.859 25.0852 70.0054 15.9693 74.1537L11.9119 68.0672L15.8851 66.16ZM44.9999 56.722C37.0559 56.7331 29.1708 58.0859 21.6773 60.7233C18.5337 56.0835 16.8602 50.6045 16.8749 45C16.8749 29.4917 29.4916 16.875 44.9999 16.875C60.5082 16.875 73.1249 29.4917 73.1249 45C73.1384 50.6043 71.4647 56.0829 68.3217 60.7229C60.8285 58.0858 52.9437 56.7331 44.9999 56.722ZM54.733 71.389C48.4505 73.7037 41.5488 73.7037 35.2664 71.389C41.72 70.4323 48.2794 70.4323 54.733 71.389ZM12.3408 83.2115L12.6541 77.4199C12.6724 77.0822 12.5684 76.7492 12.3612 76.4819C12.154 76.2147 11.8574 76.0311 11.5257 75.9647L8.06127 75.272L11.8283 73.0118L14.2987 76.7176C14.4862 76.9989 14.7688 77.2032 15.0947 77.2931C15.4206 77.383 15.768 77.3525 16.0732 77.2072C17.0145 76.7589 17.9668 76.3334 18.9302 75.9305L20.5122 78.3035L12.3408 83.2115ZM23.78 78.1719C23.7488 78.1017 23.712 78.0341 23.6699 77.9699L21.607 74.8761C24.4795 73.8146 27.4206 72.9487 30.4101 72.2842C34.8991 74.6828 39.9103 75.9376 44.9999 75.9376C50.0896 75.9376 55.1007 74.6828 59.5898 72.2842C62.5793 72.9483 65.5205 73.8139 68.3931 74.8753L66.3301 77.969C66.288 78.0331 66.2513 78.1006 66.2203 78.1708C59.884 82.2215 52.5206 84.374 45.0002 84.374C37.4798 84.374 30.1165 82.2215 23.7802 78.1708L23.78 78.1719ZM81.9386 75.2715L78.4741 75.9642C78.1425 76.0306 77.8459 76.2142 77.6387 76.4814C77.4315 76.7487 77.3275 77.0816 77.3458 77.4193L77.659 83.211L69.4879 78.3035L71.0699 75.9305C72.0323 76.3343 72.9847 76.7599 73.9269 77.2072C74.2322 77.3527 74.5798 77.3834 74.9058 77.2935C75.2319 77.2035 75.5147 76.9991 75.7022 76.7176L78.1727 73.0118L81.9386 75.2715ZM78.7628 65.2709L75.3319 63.624C73.9188 62.9459 72.4826 62.3163 71.0231 61.7353C74.2443 56.7491 75.9513 50.9361 75.9374 45C75.9374 27.941 62.059 14.0625 44.9999 14.0625C27.9409 14.0625 14.0624 27.941 14.0624 45C14.047 50.9365 15.7536 56.7501 18.9754 61.7363C17.518 62.3174 16.0825 62.9469 14.6687 63.6245L11.2387 65.2709C7.65321 59.296 5.71751 52.4767 5.62925 45.5091C5.54098 38.5415 7.30331 31.6753 10.7363 25.6115C14.1693 19.5477 19.15 14.5035 25.1698 10.994C31.1896 7.48449 38.0329 5.63533 45.0011 5.63533C51.9692 5.63533 58.8126 7.48449 64.8324 10.994C70.8522 14.5035 75.8329 19.5477 79.2659 25.6115C82.6989 31.6753 84.4612 38.5415 84.3729 45.5091C84.2847 52.4767 82.349 59.296 78.7635 65.2709H78.7628Z" fill="#383838"/>
<path d="M58.3594 33.75H50.625C50.2522 33.7496 49.8947 33.6013 49.6311 33.3377C49.3675 33.074 49.2192 32.7166 49.2188 32.3438V28.125C49.2174 27.0065 48.7726 25.9342 47.9817 25.1433C47.1908 24.3524 46.1185 23.9076 45 23.9062H42.1875C41.8145 23.9062 41.4569 24.0544 41.1931 24.3181C40.9294 24.5819 40.7812 24.9395 40.7812 25.3125V28.4121C40.7842 29.4743 40.5763 30.5266 40.1698 31.5081C39.7632 32.4895 39.166 33.3805 38.4128 34.1295L37.3862 35.1562H29.5312C29.1583 35.1562 28.8006 35.3044 28.5369 35.5681C28.2732 35.8319 28.125 36.1895 28.125 36.5625V52.0312C28.125 52.4042 28.2732 52.7619 28.5369 53.0256C28.8006 53.2893 29.1583 53.4375 29.5312 53.4375H54.1406C54.7101 53.4376 55.2711 53.2994 55.7753 53.0348C56.2795 52.7702 56.7119 52.387 57.0353 51.9183C57.3587 51.4495 57.5633 50.9092 57.6317 50.3439C57.7001 49.7786 57.6301 49.2051 57.4277 48.6728C58.1127 48.2396 58.6268 47.583 58.8831 46.8141C59.1393 46.0453 59.122 45.2115 58.834 44.454C59.5189 44.0208 60.033 43.3642 60.2893 42.5954C60.5456 41.8266 60.5283 40.9928 60.2402 40.2353C60.8834 39.8277 61.3769 39.2224 61.6465 38.5102C61.916 37.7981 61.9471 37.0177 61.735 36.2864C61.5229 35.5551 61.0791 34.9124 60.4704 34.455C59.8616 33.9976 59.1208 33.7502 58.3594 33.75ZM30.9375 37.9688H36.5625V50.625H30.9375V37.9688ZM58.3594 37.9688H56.9531C56.5802 37.9688 56.2225 38.1169 55.9588 38.3806C55.695 38.6444 55.5469 39.002 55.5469 39.375C55.5469 39.748 55.695 40.1056 55.9588 40.3694C56.2225 40.6331 56.5802 40.7812 56.9531 40.7812C57.1396 40.7812 57.3184 40.8553 57.4503 40.9872C57.5822 41.1191 57.6562 41.2979 57.6562 41.4844C57.6562 41.6709 57.5822 41.8497 57.4503 41.9816C57.3184 42.1134 57.1396 42.1875 56.9531 42.1875H55.5469C55.1739 42.1875 54.8162 42.3357 54.5525 42.5994C54.2888 42.8631 54.1406 43.2208 54.1406 43.5938C54.1406 43.9667 54.2888 44.3244 54.5525 44.5881C54.8162 44.8518 55.1739 45 55.5469 45C55.7334 45 55.9122 45.0741 56.0441 45.2059C56.1759 45.3378 56.25 45.5166 56.25 45.7031C56.25 45.8896 56.1759 46.0684 56.0441 46.2003C55.9122 46.3322 55.7334 46.4062 55.5469 46.4062H54.1406C53.7677 46.4062 53.41 46.5544 53.1463 46.8181C52.8825 47.0819 52.7344 47.4395 52.7344 47.8125C52.7344 48.1855 52.8825 48.5431 53.1463 48.8069C53.41 49.0706 53.7677 49.2188 54.1406 49.2188C54.3271 49.2188 54.5059 49.2928 54.6378 49.4247C54.7697 49.5566 54.8438 49.7354 54.8438 49.9219C54.8438 50.1084 54.7697 50.2872 54.6378 50.4191C54.5059 50.5509 54.3271 50.625 54.1406 50.625H39.375V37.1449L40.4017 36.1185C41.4169 35.1088 42.2217 33.9078 42.7696 32.585C43.3175 31.2622 43.5976 29.8438 43.5938 28.4121V26.7188H45C45.3728 26.7192 45.7303 26.8675 45.9939 27.1311C46.2575 27.3947 46.4058 27.7522 46.4062 28.125V32.3438C46.4076 33.4622 46.8524 34.5345 47.6433 35.3254C48.4342 36.1163 49.5065 36.5612 50.625 36.5625H58.3594C58.5459 36.5625 58.7247 36.6366 58.8566 36.7684C58.9884 36.9003 59.0625 37.0791 59.0625 37.2656C59.0625 37.4521 58.9884 37.6309 58.8566 37.7628C58.7247 37.8947 58.5459 37.9688 58.3594 37.9688Z" fill="#383838"/>
<path d="M42.0839 63.3166L43.3847 64.2617L42.8877 65.791C42.8532 65.897 42.8532 66.0111 42.8876 66.1171C42.922 66.223 42.989 66.3154 43.0792 66.3809C43.1693 66.4464 43.2779 66.4816 43.3893 66.4816C43.5007 66.4816 43.6092 66.4463 43.6993 66.3808L45.0001 65.4356L46.3009 66.3808C46.391 66.4463 46.4995 66.4816 46.6109 66.4816C46.7223 66.4816 46.8309 66.4464 46.921 66.3809C47.0111 66.3154 47.0782 66.223 47.1126 66.1171C47.147 66.0111 47.147 65.897 47.1125 65.791L46.6155 64.2617L47.9163 63.3166C48.0064 63.2511 48.0735 63.1588 48.1079 63.0529C48.1423 62.947 48.1423 62.8329 48.1079 62.727C48.0735 62.6211 48.0064 62.5288 47.9163 62.4633C47.8263 62.3979 47.7178 62.3626 47.6064 62.3626H45.9985L45.5016 60.8333C45.4672 60.7274 45.4001 60.6351 45.31 60.5697C45.2199 60.5042 45.1114 60.469 45.0001 60.469C44.8887 60.469 44.7803 60.5042 44.6902 60.5697C44.6001 60.6351 44.533 60.7274 44.4986 60.8333L44.0017 62.3626H42.3938C42.2824 62.3626 42.1739 62.3979 42.0839 62.4633C41.9938 62.5288 41.9267 62.6211 41.8923 62.727C41.8579 62.8329 41.8579 62.947 41.8923 63.0529C41.9267 63.1588 41.9938 63.2511 42.0839 63.3166Z" fill="#383838"/>
<path d="M33.9684 64.3329L35.2692 65.2781L34.7722 66.8074C34.7377 66.9133 34.7377 67.0275 34.7721 67.1334C34.8065 67.2394 34.8735 67.3318 34.9637 67.3973C35.0538 67.4627 35.1623 67.498 35.2737 67.498C35.3852 67.498 35.4937 67.4627 35.5838 67.3972L36.8846 66.452L38.1854 67.3972C38.2755 67.4627 38.384 67.498 38.4954 67.498C38.6068 67.498 38.7154 67.4627 38.8055 67.3973C38.8956 67.3318 38.9627 67.2394 38.9971 67.1334C39.0315 67.0275 39.0314 66.9133 38.9969 66.8074L38.5 65.2781L39.8008 64.3329C39.8909 64.2675 39.9579 64.1752 39.9924 64.0693C40.0268 63.9634 40.0268 63.8493 39.9924 63.7434C39.958 63.6375 39.8909 63.5452 39.8008 63.4797C39.7107 63.4142 39.6022 63.379 39.4909 63.379H37.8828L37.3861 61.8497C37.3517 61.7437 37.2846 61.6514 37.1945 61.5859C37.1044 61.5204 36.9959 61.4851 36.8845 61.4851C36.7731 61.4851 36.6646 61.5204 36.5745 61.5859C36.4843 61.6514 36.4173 61.7437 36.3829 61.8497L35.8861 63.379H34.2783C34.1669 63.379 34.0584 63.4142 33.9683 63.4797C33.8783 63.5452 33.8112 63.6375 33.7768 63.7434C33.7424 63.8493 33.7424 63.9634 33.7768 64.0693C33.8112 64.1752 33.8783 64.2675 33.9684 64.3329Z" fill="#383838"/>
<path d="M50.1991 64.3329L51.4999 65.2781L51.003 66.8074C50.9685 66.9133 50.9685 67.0275 51.0028 67.1334C51.0372 67.2394 51.1043 67.3318 51.1944 67.3973C51.2846 67.4627 51.3931 67.498 51.5045 67.498C51.6159 67.498 51.7245 67.4627 51.8146 67.3972L53.1154 66.452L54.4161 67.3972C54.5062 67.4627 54.6148 67.498 54.7262 67.498C54.8376 67.498 54.9462 67.4627 55.0363 67.3973C55.1264 67.3318 55.1935 67.2394 55.2279 67.1334C55.2623 67.0275 55.2622 66.9133 55.2277 66.8074L54.7308 65.2781L56.0316 64.3329C56.1217 64.2675 56.1887 64.1752 56.2231 64.0692C56.2575 63.9633 56.2575 63.8492 56.2231 63.7433C56.1887 63.6374 56.1216 63.5451 56.0315 63.4796C55.9414 63.4142 55.8329 63.3789 55.7215 63.379H54.1136L53.6169 61.8497C53.5825 61.7437 53.5154 61.6514 53.4253 61.5859C53.3352 61.5204 53.2267 61.4851 53.1153 61.4851C53.0039 61.4851 52.8953 61.5204 52.8052 61.5859C52.7151 61.6514 52.6481 61.7437 52.6137 61.8497L52.1169 63.379H50.509C50.3977 63.379 50.2892 63.4142 50.1991 63.4797C50.109 63.5452 50.042 63.6375 50.0076 63.7434C49.9732 63.8493 49.9732 63.9634 50.0076 64.0693C50.042 64.1752 50.1091 64.2675 50.1991 64.3329Z" fill="#383838"/>
</svg>
