<svg width="90" height="90" viewBox="0 0 90 90" fill="none" xmlns="http://www.w3.org/2000/svg">
<path d="M82.9656 73.3022C82.9677 73.2427 82.9688 73.1836 82.9688 73.125C82.9671 71.6337 82.3739 70.2039 81.3194 69.1494C80.2649 68.0948 78.8351 67.5017 77.3438 67.5V41.4844L82.4063 37.6875C82.5821 37.5556 82.7246 37.3844 82.8222 37.1875C82.9199 36.9906 82.9701 36.7736 82.9687 36.5538C82.9673 36.334 82.9145 36.1176 82.8144 35.9219C82.7142 35.7263 82.5696 35.5568 82.3922 35.4271L70.3125 26.5996V11.25C70.6855 11.25 71.0432 11.1018 71.3069 10.8381C71.5706 10.5744 71.7188 10.2167 71.7188 9.84375V4.21875C71.7188 3.84579 71.5706 3.4881 71.3069 3.22438C71.0432 2.96066 70.6855 2.8125 70.3125 2.8125H56.25C55.877 2.8125 55.5194 2.96066 55.2556 3.22438C54.9919 3.4881 54.8438 3.84579 54.8438 4.21875V9.84375C54.8438 10.2167 54.9919 10.5744 55.2556 10.8381C55.5194 11.1018 55.877 11.25 56.25 11.25V16.3232L45.8297 8.70838C45.5889 8.53239 45.2983 8.43754 45 8.43754C44.7017 8.43754 44.4112 8.53239 44.1703 8.70838L7.60782 35.4271C7.43037 35.5568 7.28579 35.7263 7.18567 35.9219C7.08555 36.1176 7.03268 36.334 7.03132 36.5538C7.02995 36.7736 7.08012 36.9906 7.17779 37.1875C7.27547 37.3844 7.41794 37.5556 7.59376 37.6875L12.6563 41.4844V67.5C11.1649 67.5017 9.73517 68.0948 8.68064 69.1494C7.62611 70.2039 7.03294 71.6337 7.03126 73.125C7.03126 73.1836 7.03232 73.2427 7.03443 73.3022C5.70779 73.6433 4.5512 74.4567 3.78167 75.5899C3.01214 76.7231 2.68255 78.0982 2.85475 79.4571C3.02694 80.816 3.68909 82.0654 4.71694 82.9709C5.7448 83.8763 7.06773 84.3756 8.43751 84.375H81.5625C82.9323 84.3756 84.2552 83.8763 85.2831 82.9709C86.3109 82.0654 86.9731 80.816 87.1453 79.4571C87.3175 78.0982 86.9879 76.7231 86.2184 75.5899C85.4488 74.4567 84.2922 73.6433 82.9656 73.3022ZM57.6563 5.625H68.9063V8.4375H57.6563V5.625ZM59.0625 18.2812V11.25H67.5V24.5443L58.9294 18.2812H59.0625ZM45 11.5854L79.1991 36.5773L75.9247 39.0331L45.8272 17.1439C45.5869 16.9691 45.2973 16.8749 45 16.8749C44.7028 16.8749 44.4132 16.9691 44.1728 17.1439L14.0753 39.0331L10.8009 36.5773L45 11.5854ZM5.62501 78.75C5.62579 78.0116 5.91659 77.303 6.43476 76.777C6.95294 76.2509 7.65701 75.9494 8.39532 75.9375H8.39866C8.47056 75.9475 8.54245 75.9561 8.61575 75.9609C8.84879 75.9756 9.08182 75.932 9.29382 75.8342C9.50581 75.7363 9.69009 75.5872 9.83004 75.4002C9.96998 75.2133 10.0612 74.9945 10.0954 74.7635C10.1296 74.5325 10.1058 74.2967 10.026 74.0772C9.90967 73.773 9.84796 73.4507 9.84376 73.125C9.84465 72.3793 10.1412 71.6645 10.6685 71.1372C11.1958 70.61 11.9106 70.3134 12.6563 70.3125V81.5625H8.43751C7.69186 81.5616 6.97701 81.265 6.44975 80.7378C5.9225 80.2105 5.6259 79.4957 5.62501 78.75ZM66.0938 81.5625H49.2188V50.625H66.0938V81.5625ZM68.9063 81.5625V49.2188C68.9063 48.8458 68.7581 48.4881 68.4944 48.2244C68.2307 47.9607 67.873 47.8125 67.5 47.8125H47.8125C47.4395 47.8125 47.0819 47.9607 46.8181 48.2244C46.5544 48.4881 46.4063 48.8458 46.4063 49.2188V81.5625H15.4688V41.4974L45 20.0201L74.5313 41.4974V81.5625H68.9063ZM81.5625 81.5625H77.3438V70.3125C78.0894 70.3134 78.8043 70.61 79.3315 71.1372C79.8588 71.6645 80.1554 72.3793 80.1563 73.125C80.1521 73.4509 80.0904 73.7735 79.974 74.0779C79.8942 74.2974 79.8704 74.5332 79.9046 74.7642C79.9388 74.9952 80.03 75.214 80.17 75.4009C80.3099 75.5879 80.4942 75.737 80.7062 75.8349C80.9182 75.9327 81.1512 75.9763 81.3843 75.9616C81.4576 75.9568 81.5295 75.9482 81.6014 75.9382H81.6047C82.3506 75.9438 83.0638 76.2455 83.5873 76.7769C84.1107 77.3083 84.4017 78.0259 84.3961 78.7718C84.3905 79.5177 84.0888 80.2309 83.5574 80.7544C83.026 81.2778 82.3084 81.5688 81.5625 81.5632V81.5625Z" fill="#383838"/>
<path d="M39.375 47.8125H22.5C22.127 47.8125 21.7694 47.9607 21.5056 48.2244C21.2419 48.4881 21.0938 48.8458 21.0938 49.2188V68.9062C21.0938 69.2792 21.2419 69.6369 21.5056 69.9006C21.7694 70.1643 22.127 70.3125 22.5 70.3125H39.375C39.748 70.3125 40.1056 70.1643 40.3694 69.9006C40.6331 69.6369 40.7812 69.2792 40.7812 68.9062V49.2188C40.7812 48.8458 40.6331 48.4881 40.3694 48.2244C40.1056 47.9607 39.748 47.8125 39.375 47.8125ZM37.9688 57.6562H32.3438V50.625H37.9688V57.6562ZM29.5312 50.625V57.6562H23.9062V50.625H29.5312ZM23.9062 60.4688H29.5312V67.5H23.9062V60.4688ZM32.3438 67.5V60.4688H37.9688V67.5H32.3438Z" fill="#383838"/>
<path d="M54.7368 65.2258C55.034 64.5083 54.6933 63.6857 53.9758 63.3885C53.2582 63.0913 52.4356 63.432 52.1384 64.1495C51.8412 64.8671 52.1819 65.6897 52.8995 65.9869C53.617 66.2841 54.4396 65.9434 54.7368 65.2258Z" fill="#383838"/>
</svg>
