<svg width="68" height="68" viewBox="0 0 68 68" fill="none" xmlns="http://www.w3.org/2000/svg">
<path d="M40.9163 51.1318H27.1718C26.9464 51.1318 26.7302 51.0422 26.5708 50.8828C26.4114 50.7234 26.3218 50.5072 26.3218 50.2818C26.3218 50.0563 26.4114 49.8401 26.5708 49.6807C26.7302 49.5213 26.9464 49.4318 27.1718 49.4318H40.9163C41.1417 49.4318 41.3579 49.5213 41.5173 49.6807C41.6768 49.8401 41.7663 50.0563 41.7663 50.2818C41.7663 50.5072 41.6768 50.7234 41.5173 50.8828C41.3579 51.0422 41.1417 51.1318 40.9163 51.1318Z" fill="#FCCE10"/>
<path d="M61.1602 51.1318H53.6666C53.4412 51.1318 53.225 51.0422 53.0656 50.8828C52.9062 50.7234 52.8166 50.5072 52.8166 50.2818C52.8166 50.0563 52.9062 49.8401 53.0656 49.6807C53.225 49.5213 53.4412 49.4318 53.6666 49.4318H60.3102V41.6823H7.69013V49.4318H14.4221C14.6476 49.4318 14.8638 49.5213 15.0232 49.6807C15.1826 49.8401 15.2721 50.0563 15.2721 50.2818C15.2721 50.5072 15.1826 50.7234 15.0232 50.8828C14.8638 51.0422 14.6476 51.1318 14.4221 51.1318H6.84013C6.61469 51.1318 6.39849 51.0422 6.23909 50.8828C6.07968 50.7234 5.99013 50.5072 5.99013 50.2818V40.8323C5.99013 40.6069 6.07968 40.3907 6.23909 40.2313C6.39849 40.0719 6.61469 39.9823 6.84013 39.9823H61.1602C61.3857 39.9823 61.6019 40.0719 61.7613 40.2313C61.9207 40.3907 62.0102 40.6069 62.0102 40.8323V50.2818C62.0102 50.5072 61.9207 50.7234 61.7613 50.8828C61.6019 51.0422 61.3857 51.1318 61.1602 51.1318Z" fill="#FCCE10"/>
<path d="M61.1462 41.6788H40.4598C40.2344 41.6788 40.0182 41.5893 39.8587 41.4299C39.6993 41.2705 39.6098 41.0543 39.6098 40.8288V20.4289C39.6098 20.2034 39.6993 19.9872 39.8587 19.8278C40.0182 19.6684 40.2344 19.5789 40.4598 19.5789H52.8587C53.0776 19.5791 53.288 19.6637 53.4461 19.8152L61.7336 27.7423C61.8165 27.8215 61.8825 27.9168 61.9277 28.0222C61.9728 28.1277 61.9961 28.2412 61.9962 28.356V40.8288C61.9962 41.0543 61.9067 41.2705 61.7473 41.4299C61.5879 41.5893 61.3717 41.6788 61.1462 41.6788ZM41.3132 39.9788H60.2962V28.7198L52.517 21.2789H41.3098L41.3132 39.9788Z" fill="#FCCE10"/>
<path d="M20.7936 57.5068C19.3647 57.5068 17.9678 57.083 16.7796 56.2891C15.5915 55.4952 14.6654 54.3668 14.1186 53.0466C13.5718 51.7265 13.4287 50.2737 13.7075 48.8722C13.9862 47.4707 14.6744 46.1834 15.6848 45.1729C16.6952 44.1625 17.9826 43.4744 19.3841 43.1956C20.7856 42.9168 22.2383 43.0599 23.5585 43.6067C24.8787 44.1536 26.0071 45.0796 26.801 46.2678C27.5949 47.4559 28.0186 48.8528 28.0186 50.2818C28.0164 52.1973 27.2545 54.0337 25.9 55.3881C24.5455 56.7426 22.7091 57.5045 20.7936 57.5068ZM20.7936 44.7568C19.7009 44.7568 18.6327 45.0808 17.7241 45.6879C16.8155 46.295 16.1074 47.1579 15.6892 48.1674C15.271 49.177 15.1616 50.2879 15.3748 51.3596C15.588 52.4314 16.1142 53.4158 16.8869 54.1885C17.6596 54.9612 18.644 55.4874 19.7158 55.7006C20.7875 55.9138 21.8984 55.8044 22.908 55.3862C23.9175 54.968 24.7804 54.2599 25.3875 53.3513C25.9946 52.4427 26.3186 51.3745 26.3186 50.2818C26.3168 48.817 25.7342 47.4127 24.6984 46.377C23.6627 45.3412 22.2584 44.7586 20.7936 44.7568Z" fill="#FCCE10"/>
<path d="M20.7935 53.8943C20.079 53.8943 19.3805 53.6825 18.7865 53.2855C18.1924 52.8886 17.7294 52.3244 17.4559 51.6643C17.1825 51.0042 17.111 50.2778 17.2504 49.5771C17.3898 48.8763 17.7338 48.2326 18.239 47.7274C18.7442 47.2222 19.3879 46.8781 20.0887 46.7387C20.7894 46.5993 21.5158 46.6709 22.1759 46.9443C22.836 47.2177 23.4002 47.6807 23.7971 48.2748C24.1941 48.8689 24.406 49.5673 24.406 50.2818C24.4051 51.2396 24.0242 52.158 23.3469 52.8352C22.6696 53.5125 21.7513 53.8934 20.7935 53.8943ZM20.7935 48.3693C20.4152 48.3693 20.0454 48.4815 19.7309 48.6916C19.4164 48.9018 19.1713 49.2005 19.0265 49.5499C18.8818 49.8994 18.8439 50.2839 18.9177 50.6549C18.9915 51.0259 19.1736 51.3667 19.4411 51.6342C19.7086 51.9016 20.0494 52.0838 20.4203 52.1576C20.7913 52.2314 21.1759 52.1935 21.5253 52.0487C21.8748 51.904 22.1735 51.6589 22.3836 51.3443C22.5938 51.0298 22.706 50.6601 22.706 50.2818C22.7053 49.7748 22.5036 49.2887 22.145 48.9302C21.7865 48.5717 21.3005 48.37 20.7935 48.3693Z" fill="#FCCE10"/>
<path d="M47.2899 53.8943C46.5754 53.8943 45.877 53.6825 45.2829 53.2855C44.6889 52.8886 44.2258 52.3244 43.9524 51.6643C43.679 51.0042 43.6075 50.2778 43.7468 49.5771C43.8862 48.8763 44.2303 48.2326 44.7355 47.7274C45.2407 47.2222 45.8844 46.8781 46.5852 46.7387C47.2859 46.5993 48.0123 46.6709 48.6724 46.9443C49.3325 47.2177 49.8967 47.6807 50.2936 48.2748C50.6906 48.8689 50.9024 49.5673 50.9024 50.2818C50.9015 51.2396 50.5206 52.158 49.8434 52.8352C49.1661 53.5125 48.2478 53.8934 47.2899 53.8943ZM47.2899 48.3693C46.9117 48.3693 46.5419 48.4815 46.2274 48.6916C45.9129 48.9018 45.6678 49.2005 45.523 49.5499C45.3783 49.8994 45.3404 50.2839 45.4142 50.6549C45.488 51.0259 45.6701 51.3667 45.9376 51.6342C46.2051 51.9016 46.5458 52.0838 46.9168 52.1576C47.2878 52.2314 47.6724 52.1935 48.0218 52.0487C48.3713 51.904 48.67 51.6589 48.8801 51.3443C49.0903 51.0298 49.2024 50.6601 49.2024 50.2818C49.2018 49.7748 49 49.2887 48.6415 48.9302C48.283 48.5717 47.797 48.37 47.2899 48.3693Z" fill="#FCCE10"/>
<path d="M47.2897 57.5068C45.8607 57.5068 44.4638 57.083 43.2757 56.2891C42.0875 55.4952 41.1615 54.3668 40.6146 53.0466C40.0678 51.7265 39.9247 50.2737 40.2035 48.8722C40.4823 47.4707 41.1704 46.1834 42.1808 45.1729C43.1913 44.1625 44.4786 43.4744 45.8801 43.1956C47.2817 42.9168 48.7344 43.0599 50.0546 43.6067C51.3747 44.1536 52.5031 45.0796 53.297 46.2678C54.0909 47.4559 54.5147 48.8528 54.5147 50.2818C54.5124 52.1973 53.7505 54.0337 52.396 55.3881C51.0416 56.7426 49.2052 57.5045 47.2897 57.5068ZM47.2897 44.7568C46.1969 44.7568 45.1287 45.0808 44.2201 45.6879C43.3116 46.295 42.6034 47.1579 42.1852 48.1674C41.7671 49.177 41.6576 50.2879 41.8708 51.3596C42.084 52.4314 42.6102 53.4158 43.3829 54.1885C44.1556 54.9612 45.14 55.4874 46.2118 55.7006C47.2835 55.9138 48.3944 55.8044 49.404 55.3862C50.4136 54.968 51.2764 54.2599 51.8835 53.3513C52.4906 52.4427 52.8147 51.3745 52.8147 50.2818C52.8129 48.817 52.2302 47.4127 51.1944 46.377C50.1587 45.3412 48.7544 44.7586 47.2897 44.7568Z" fill="#FCCE10"/>
<path d="M61.1457 37.145H48.5224C48.2969 37.145 48.0807 37.0554 47.9213 36.896C47.7619 36.7366 47.6724 36.5204 47.6724 36.295V24.9611C47.6724 24.7357 47.7619 24.5195 47.9213 24.36C48.0807 24.2006 48.2969 24.1111 48.5224 24.1111H57.6012C57.8267 24.1111 58.0429 24.2006 58.2023 24.36C58.3617 24.5195 58.4512 24.7357 58.4512 24.9611C58.4512 25.1865 58.3617 25.4027 58.2023 25.5621C58.0429 25.7215 57.8267 25.8111 57.6012 25.8111H49.3724V35.445H61.1457C61.3712 35.445 61.5874 35.5345 61.7468 35.694C61.9062 35.8534 61.9957 36.0696 61.9957 36.295C61.9957 36.5204 61.9062 36.7366 61.7468 36.896C61.5874 37.0554 61.3712 37.145 61.1457 37.145Z" fill="#FCCE10"/>
<path d="M35.7163 41.6789H28.8339V33.439H30.5339V39.9789H34.0163V33.439H35.7163V41.6789Z" fill="#FCCE10"/>
<path d="M32.273 35.3285C31.3576 35.3285 30.4627 35.0571 29.7016 34.5485C28.9404 34.0399 28.3472 33.317 27.997 32.4712C27.6467 31.6255 27.5551 30.6949 27.7337 29.797C27.9124 28.8992 28.3533 28.0745 29.0006 27.4273C29.648 26.7801 30.4727 26.3393 31.3706 26.1609C32.2684 25.9824 33.199 26.0741 34.0447 26.4246C34.8904 26.775 35.6132 27.3684 36.1216 28.1296C36.6301 28.8908 36.9014 29.7857 36.9012 30.7011C36.8996 31.9281 36.4115 33.1043 35.5439 33.9718C34.6762 34.8392 33.4999 35.3272 32.273 35.3285ZM32.273 27.7729C31.6938 27.7729 31.1277 27.9446 30.6461 28.2664C30.1646 28.5881 29.7893 29.0455 29.5676 29.5805C29.346 30.1156 29.288 30.7044 29.401 31.2724C29.514 31.8404 29.7929 32.3622 30.2024 32.7717C30.6119 33.1812 31.1337 33.4601 31.7017 33.5731C32.2697 33.6861 32.8585 33.6281 33.3936 33.4065C33.9286 33.1848 34.386 32.8095 34.7077 32.328C35.0295 31.8464 35.2012 31.2803 35.2012 30.7011C35.2005 29.9247 34.8918 29.1803 34.3428 28.6313C33.7938 28.0823 33.0494 27.7735 32.273 27.7729Z" fill="#FCCE10"/>
<path d="M16.7585 19.7489C15.843 19.7491 14.9481 19.4778 14.1869 18.9693C13.4257 18.4609 12.8323 17.7381 12.4819 16.8924C12.1315 16.0467 12.0397 15.1161 12.2182 14.2183C12.3967 13.3204 12.8374 12.4957 13.4846 11.8483C14.1319 11.201 14.9566 10.7601 15.8544 10.5814C16.7522 10.4028 17.6828 10.4944 18.5286 10.8447C19.3743 11.1949 20.0972 11.7881 20.6058 12.5493C21.1144 13.3104 21.3859 14.2053 21.3859 15.1207C21.3845 16.3476 20.8966 17.5239 20.0291 18.3916C19.1616 19.2592 17.9854 19.7474 16.7585 19.7489ZM16.7585 12.1933C16.1792 12.1931 15.613 12.3647 15.1313 12.6864C14.6496 13.0081 14.2742 13.4654 14.0524 14.0005C13.8307 14.5357 13.7726 15.1245 13.8856 15.6926C13.9985 16.2607 14.2775 16.7825 14.687 17.1921C15.0966 17.6017 15.6184 17.8806 16.1866 17.9936C16.7547 18.1065 17.3435 18.0485 17.8786 17.8267C18.4137 17.605 18.871 17.2295 19.1927 16.7479C19.5144 16.2662 19.686 15.6999 19.6859 15.1207C19.685 14.3446 19.3763 13.6005 18.8275 13.0517C18.2787 12.5029 17.5346 12.1942 16.7585 12.1933Z" fill="#FCCE10"/>
<path d="M16.5716 19.4858L17.7735 18.2839L29.1189 29.6293L27.917 30.8312L16.5716 19.4858Z" fill="#FCCE10"/>
<path d="M19.9198 16.144L21.1217 14.9421L32.5404 26.3608L31.3385 27.5627L19.9198 16.144Z" fill="#FCCE10"/>
<path d="M15.0536 30.3756C14.6679 30.3758 14.286 30.3 13.9296 30.1526C13.5733 30.0051 13.2495 29.7889 12.9768 29.5162C12.704 29.2436 12.4877 28.9198 12.3401 28.5635C12.1926 28.2072 12.1167 27.8253 12.1168 27.4397C12.1168 27.2142 12.2064 26.998 12.3658 26.8386C12.5252 26.6792 12.7414 26.5897 12.9668 26.5897C13.1922 26.5897 13.4084 26.6792 13.5678 26.8386C13.7273 26.998 13.8168 27.2142 13.8168 27.4397C13.8163 27.6287 13.8594 27.8153 13.9426 27.9849C14.0259 28.1546 14.1472 28.3028 14.2971 28.418C14.4511 28.5365 14.6306 28.6175 14.8214 28.6546C15.0121 28.6916 15.2089 28.6837 15.3961 28.6314C15.5995 28.5758 15.7848 28.4682 15.9339 28.3192C16.083 28.1701 16.1906 27.9847 16.2461 27.7814C16.2989 27.5941 16.3071 27.3972 16.2702 27.2062C16.2333 27.0153 16.1523 26.8356 16.0336 26.6815C15.9184 26.5316 15.7702 26.4103 15.6005 26.3271C15.4309 26.2438 15.2443 26.2007 15.0553 26.2012C14.8298 26.2012 14.6136 26.1117 14.4542 25.9523C14.2948 25.7928 14.2053 25.5766 14.2053 25.3512V18.49C14.2053 18.2646 14.2948 18.0484 14.4542 17.889C14.6136 17.7296 14.8298 17.64 15.0553 17.64C15.2807 17.64 15.4969 17.7296 15.6563 17.889C15.8157 18.0484 15.9053 18.2646 15.9053 18.49V24.627C16.49 24.8031 17.0049 25.158 17.3775 25.6419C17.6548 26.0011 17.8455 26.4194 17.9348 26.8644C18.0242 27.3093 18.0097 27.7688 17.8925 28.2072C17.7603 28.7036 17.4995 29.1563 17.1364 29.5197C16.7733 29.8831 16.3208 30.1443 15.8245 30.277C15.5728 30.3425 15.3137 30.3756 15.0536 30.3756Z" fill="#FCCE10"/>
</svg>
