<svg width="50" height="50" viewBox="0 0 50 50" fill="none" xmlns="http://www.w3.org/2000/svg">
<path d="M13.3696 23.299C11.5293 23.299 10.0373 24.791 10.0373 26.6313C10.0373 28.4717 11.5293 29.9636 13.3696 29.9636C15.2097 29.9636 16.7019 28.4717 16.7019 26.6313C16.7019 24.791 15.2097 23.299 13.3696 23.299ZM13.3696 28.2973C12.4494 28.2973 11.7035 27.5512 11.7035 26.6313C11.7035 25.7109 12.4494 24.965 13.3696 24.965C14.2895 24.965 15.0354 25.7109 15.0354 26.6313C15.0354 27.5512 14.2895 28.2973 13.3696 28.2973Z" fill="#FCCE10"/>
<path d="M34.8154 13.4183C36.8359 9.56242 35.8652 4.8174 32.4929 2.06451C29.1205 -0.68817 24.277 -0.68817 20.9045 2.06451C17.5321 4.8174 16.5617 9.56242 18.5819 13.4183C17.8853 13.4821 17.1934 13.5887 16.5094 13.7377C15.1634 11.4378 12.7021 10.0211 10.0373 10.0126C9.57712 10.0126 9.20417 10.3851 9.20417 10.8455V17.349C6.38916 19.7591 4.46124 23.0413 3.72663 26.674H0.873346C0.413381 26.674 0.0402222 27.0467 0.0402222 27.5071V34.1717C0.0402222 34.6319 0.413381 35.0046 0.873346 35.0046H4.15418C5.41024 38.9778 8.10205 42.34 11.7035 44.4359V49.1671C11.7035 49.6271 12.0767 50 12.5365 50H20.0341C20.4943 50 20.8675 49.6271 20.8675 49.1671V46.6677H32.5304V49.1671C32.5304 49.6271 32.9033 50 33.3631 50H40.861C41.3212 50 41.6941 49.6271 41.6941 49.1671V44.4359C46.3712 41.7328 49.446 36.9284 49.9413 31.5487C49.9948 31.3161 50.0228 31.0781 50.0249 30.8392V30.0065C50.0124 21.3738 43.4143 14.1776 34.8154 13.4183ZM26.6987 1.68173C30.8397 1.68173 34.1964 5.0387 34.1964 9.17964C34.1964 13.32 30.8397 16.6773 26.6987 16.6773C22.558 16.6773 19.2012 13.32 19.2012 9.17964C19.2056 5.04037 22.5597 1.68633 26.6987 1.68173ZM48.302 31.2492C48.087 32.0532 47.3114 32.5755 46.4854 32.4724C45.6596 32.3689 45.0367 31.6717 45.0262 30.8392V30.0065H43.3604V30.8392C43.3604 32.6795 44.8522 34.1717 46.6924 34.1717C47.0802 34.1682 47.4645 34.096 47.827 33.9588C46.7445 37.9219 44.0833 41.2672 40.4652 43.2135C40.1958 43.3589 40.0279 43.6406 40.0279 43.9471V48.334H34.1964V45.8346C34.1964 45.3742 33.8233 45.0019 33.3631 45.0019H20.0341C19.574 45.0019 19.2012 45.3742 19.2012 45.8346V48.334H13.3696V43.9471C13.3696 43.6406 13.2014 43.3589 12.9324 43.2135C9.32214 41.2574 6.66693 37.9125 5.58176 33.9523C5.48303 33.5902 5.15422 33.3382 4.77813 33.3388H1.70668V28.34H4.42191C4.83168 28.3398 5.18057 28.0422 5.24479 27.6377C5.81875 24.004 7.71299 20.7091 10.5636 18.384C10.7577 18.2256 10.8702 17.9886 10.8702 17.7383V11.7403C12.8138 12.029 14.4836 13.2716 15.318 15.051C15.4874 15.4144 15.8922 15.6058 16.2812 15.5056C17.3817 15.2192 18.5108 15.058 19.6476 15.0249C20.1728 15.653 20.7788 16.2086 21.4506 16.6773H18.3679V18.3434H35.0293V16.6773H31.9514C32.6189 16.2096 33.2221 15.6556 33.7446 15.0301C41.8677 15.2414 48.3461 21.8809 48.3585 30.0065C48.3585 30.4228 48.3353 30.8392 48.302 31.2492Z" fill="#FCCE10"/>
<path d="M26.6988 5.84736V4.18091C23.9394 4.18363 21.7034 6.42007 21.7003 9.17965H23.3667C23.3667 7.33896 24.8587 5.84736 26.6988 5.84736Z" fill="#FCCE10"/>
<path d="M26.6985 14.178C29.4581 14.1749 31.6942 11.9386 31.6971 9.17969H30.0308C30.0308 11.02 28.5386 12.5115 26.6985 12.5115V14.178Z" fill="#FCCE10"/>
<path d="M40.873 7.64969C40.9403 8.05067 41.2876 8.34372 41.6942 8.34372C42.1004 8.34372 42.4476 8.05067 42.5154 7.64969C42.7423 6.29259 43.8056 5.22896 45.1631 5.00243C45.5638 4.93445 45.8573 4.58723 45.8573 4.18081C45.8573 3.77419 45.5638 3.42738 45.1631 3.35919C43.8056 3.13266 42.7423 2.06903 42.5154 0.712354C42.4476 0.311166 42.1004 0.0177002 41.6942 0.0177002C41.2876 0.0177002 40.9403 0.311166 40.873 0.712354C40.6456 2.06903 39.5824 3.13266 38.2253 3.35919C37.8245 3.42738 37.5311 3.77419 37.5311 4.18081C37.5311 4.58723 37.8245 4.93445 38.2253 5.00243C39.5824 5.22896 40.6456 6.29259 40.873 7.64969ZM41.6942 2.99084C42.0188 3.45311 42.4213 3.85576 42.8837 4.18081C42.4213 4.50565 42.0188 4.90831 41.6942 5.37057C41.3691 4.90831 40.9667 4.50565 40.5044 4.18081C40.9667 3.85576 41.3691 3.45311 41.6942 2.99084Z" fill="#FCCE10"/>
</svg>
