<svg width="38" height="50" viewBox="0 0 38 50" fill="none" xmlns="http://www.w3.org/2000/svg">
<path d="M11.8762 43.2162H2.30322V20.1168C2.27324 19.1484 0.867969 19.1491 0.838379 20.1168V43.9486C0.838379 44.3532 1.16621 44.681 1.5708 44.681H5.05078V49.2677C5.05078 49.6722 5.37861 50.0001 5.7832 50.0001H8.71289C9.11748 50.0001 9.44531 49.6722 9.44531 49.2677V44.681H11.8762C12.8445 44.6511 12.8438 43.2459 11.8762 43.2162ZM7.98047 48.5352H6.51563V44.681H7.98047V48.5352Z" fill="#FCCE10"/>
<path d="M5.75081 40.5555C5.75081 40.9601 6.07865 41.2879 6.48324 41.2879H31.45C31.8546 41.2879 32.1824 40.9601 32.1824 40.5555V22.1102C32.1824 21.8428 32.0367 21.5966 31.8022 21.468C23.9979 17.116 13.9354 17.116 6.13099 21.468C5.89652 21.5966 5.75072 21.8428 5.75072 22.1102L5.75081 40.5555ZM17.2804 38.137C17.2804 37.0635 18.2879 36.0789 18.9632 35.5739C19.5557 36.0176 20.6528 36.9938 20.6528 38.137C20.6528 39.0668 19.8963 39.8231 18.9665 39.8231C18.0367 39.8231 17.2804 39.0668 17.2804 38.137ZM21.8729 39.3545C23.0381 36.6836 19.8925 34.3247 19.3392 34.0576C19.1093 33.9217 18.8239 33.9217 18.594 34.0576C18.0227 34.3346 14.8979 36.6954 16.0603 39.3545C14.4422 38.7296 13.5571 37.4984 13.5571 35.7747C13.5868 34.1128 14.3472 33.246 14.5252 31.5123C14.612 31.5743 14.6981 31.6404 14.7799 31.71C14.9515 31.8556 15.1804 31.9147 15.4008 31.8694C15.6213 31.8244 15.8088 31.6804 15.9093 31.4792C16.8605 29.575 18.2612 28.1754 18.9671 27.5438C19.6723 28.1731 21.0683 29.5671 22.0235 31.4792C22.124 31.6805 22.3115 31.8244 22.532 31.8694C22.7526 31.9148 22.9815 31.8557 23.1528 31.71C23.2349 31.6403 23.3209 31.5741 23.4076 31.5122C23.5166 32.4119 23.7429 33.0848 23.9495 33.6993C24.8553 35.9434 24.3677 38.4456 21.8729 39.3545ZM18.9666 19.6552C23.0638 19.6552 27.1172 20.6544 30.7176 22.5482V24.3233C30.7176 24.3233 30.7176 32.3884 30.7176 39.8232H23.9868C24.033 39.7859 24.0786 39.7479 24.1234 39.7092C26.0178 38.1362 26.2005 35.3715 25.3383 33.2326C25.0716 32.4394 24.7957 31.6192 24.8072 30.2975C24.8092 30.0499 24.6861 29.8179 24.4796 29.681C24.2734 29.5442 24.0118 29.5207 23.7843 29.6188C23.7607 29.6291 23.3818 29.7941 22.9276 30.0746C21.4668 27.5777 19.4994 26.0716 19.4086 26.0029C19.1471 25.8051 18.7863 25.8051 18.5247 26.0029C18.4339 26.0716 16.4665 27.5776 15.0058 30.0746C14.5516 29.7941 14.1727 29.6291 14.149 29.6188C13.9215 29.5208 13.66 29.5441 13.4536 29.681C13.2474 29.8179 13.1242 30.0499 13.1262 30.2975C13.1375 31.6191 12.8618 32.4394 12.5951 33.2326C11.7051 35.4434 11.9364 38.2643 13.9465 39.8232H7.21566C7.21566 27.0594 7.21576 24.3238 7.21576 24.3238V22.5483C10.8161 20.6544 14.8696 19.6552 18.9666 19.6552Z" fill="#FCCE10"/>
<path d="M32.1827 12.2314C32.1827 11.0199 31.1969 10.0342 29.9854 10.0342C27.0745 10.1447 27.0752 14.3187 29.9854 14.4287C31.1969 14.4287 32.1827 13.443 32.1827 12.2314ZM29.253 12.2314C29.2837 11.2635 30.6872 11.2638 30.7178 12.2314C30.6871 13.1994 29.2835 13.1991 29.253 12.2314Z" fill="#FCCE10"/>
<path d="M37.0952 2.86895C37.0952 1.28701 35.8082 0 34.2264 0H26.3297C25.3613 0.0299805 25.362 1.43525 26.3297 1.46484H28.9766V5.0665H8.95703V1.46484H22.9074C23.8758 1.43486 23.8751 0.0295898 22.9074 0H3.70723C2.12539 0 0.838379 1.28701 0.838379 2.86895V16.6805C0.868359 17.6488 2.27363 17.6481 2.30322 16.6805V2.86895C2.30322 2.09473 2.93301 1.46484 3.70723 1.46484H7.49219V5.79893C7.49219 6.20352 7.82002 6.53135 8.22461 6.53135H29.709C30.1136 6.53135 30.4414 6.20352 30.4414 5.79893V1.46484H34.2264C35.0006 1.46484 35.6304 2.09473 35.6304 2.86895V43.2161H15.2936C14.3252 43.2461 14.3259 44.6514 15.2936 44.681H28.4883V49.2676C28.4883 49.6722 28.8161 50 29.2207 50H32.1504C32.555 50 32.8828 49.6722 32.8828 49.2676V44.681H36.3628C36.7674 44.681 37.0952 44.3531 37.0952 43.9485V24.7973C37.0952 24.7973 37.0952 8.28662 37.0952 2.86895ZM31.418 48.5352H29.9531V44.681H31.418V48.5352Z" fill="#FCCE10"/>
<path d="M21.2194 11.4984C20.2532 11.5283 20.2534 12.9336 21.2194 12.9633C22.1857 12.9334 22.1854 11.5282 21.2194 11.4984Z" fill="#FCCE10"/>
<path d="M24.62 11.4984C23.6538 11.5283 23.654 12.9336 24.62 12.9633C25.5862 12.9334 25.586 11.5282 24.62 11.4984Z" fill="#FCCE10"/>
</svg>
