<svg width="210" height="34" viewBox="0 0 210 34" fill="none" xmlns="http://www.w3.org/2000/svg">
<path d="M9.27138 21.4306C6.25279 21.4306 3.95291 20.4938 2.37175 18.6201C0.790583 16.7251 0 14.138 0 10.859C0 8.68723 0.359356 6.78158 1.07807 5.14208C1.79678 3.50257 2.84404 2.23568 4.21986 1.34141C5.59568 0.447137 7.22818 0 9.11737 0C10.062 0 10.986 0.127754 11.8895 0.383261C12.8136 0.617475 13.6042 0.883628 14.2613 1.18172C14.9389 1.45852 15.2778 1.60756 15.2778 1.62886L14.8465 3.96036C14.7028 3.87519 14.3537 3.7155 13.7993 3.48128C13.2448 3.22577 12.5775 2.98091 11.7971 2.7467C11.0374 2.51248 10.3186 2.39538 9.641 2.39538C8.49106 2.39538 7.55674 2.66153 6.83803 3.19384C6.11932 3.72614 5.57515 4.59912 5.20553 5.81278C4.85644 7.02644 4.68189 8.65529 4.68189 10.6993C4.68189 13.7016 5.10285 15.8414 5.94477 17.119C6.78669 18.3965 8.09064 19.0353 9.85662 19.0353C10.8423 19.0353 11.7047 18.8223 12.444 18.3965C13.2038 17.9494 13.8095 17.4703 14.2613 16.9593C14.7336 16.427 14.9697 16.1289 14.9697 16.065L16.325 17.598C16.325 17.7045 16.0478 18.0878 15.4934 18.7478C14.9595 19.4079 14.1689 20.0253 13.1216 20.6002C12.0744 21.1538 10.7909 21.4306 9.27138 21.4306Z" fill="white"/>
<path d="M26.4913 21.3455C26.0806 21.3455 25.747 21.31 25.4903 21.239C25.2336 21.1858 25.1052 21.1503 25.1052 21.1325L25.2336 18.7904C25.2849 18.8081 25.3876 18.8348 25.5416 18.8702C25.6956 18.9057 25.8496 18.9235 26.0036 18.9235C27.2015 18.9235 28.0828 17.7435 28.6475 15.3836C29.2293 13.006 29.5202 9.13792 29.5202 3.77937H38.6324V21.0793H35.0902V5.69567H31.548C31.5309 10.93 31.086 14.8513 30.2132 17.4596C29.3405 20.0502 28.0999 21.3455 26.4913 21.3455Z" fill="white"/>
<path d="M42.5835 21.0793V3.77937H52.5942V5.69567H46.1258V11.3913H51.8241V13.2544H46.1258V19.163H52.9535V21.0793H42.5835Z" fill="white"/>
<path d="M56.0443 21.0793V3.77937H65.3363V5.69567H59.5866V21.0793H56.0443Z" fill="white"/>
<path d="M67.2993 21.0793V3.77937H70.8415V11.7906L72.3559 10.6461L77.2586 3.77937H79.7227L74.6661 10.5397L80.9035 21.0793H76.4115L71.9452 13.3076L70.8415 14.1061V21.0793H67.2993Z" fill="white"/>
<path d="M83.367 21.0793V3.77937H86.9092V15.2506L86.7295 16.9806H86.7809L93.2493 4.36491L93.4803 3.77937H96.7658V21.0793H93.2236V9.90089L93.3776 7.98459H93.352L86.9092 20.4938L86.7039 21.0793H83.367Z" fill="white"/>
<path d="M100.713 21.0793L100.918 3.77937H105.205L109.877 16.5281H109.979L114.574 3.77937H118.553L118.732 21.0793H115.267L115.087 7.98459H115.01L110.364 21.0793H107.721L103.075 7.98459H102.998L102.921 21.0793H100.713Z" fill="white"/>
<path d="M129.239 21.0793V3.77937H141.714V21.0793H138.172V5.69567H132.781V21.0793H129.239Z" fill="white"/>
<path d="M144.169 21.0793L149.713 3.77937H153.641L158.825 21.0793H155.078L153.641 16.2353H147.839L146.325 21.0793H144.169ZM148.353 14.5586H153.153L150.868 6.41429H150.817L148.353 14.5586Z" fill="white"/>
<path d="M161.274 3.77937H166.382C168.282 3.77937 169.753 4.27619 170.797 5.26983C171.858 6.24572 172.389 7.70069 172.389 9.63474C172.389 11.0187 172.098 12.1632 171.516 13.0681C170.934 13.973 170.19 14.6384 169.283 15.0643C168.376 15.4724 167.435 15.6764 166.459 15.6764H164.816V21.0793H161.274V3.77937ZM166.049 13.973C166.904 13.973 167.537 13.6714 167.948 13.0681C168.359 12.4471 168.564 11.3559 168.564 9.79443C168.564 8.21525 168.359 7.10628 167.948 6.46752C167.537 5.82875 166.904 5.50937 166.049 5.50937H164.816V13.973H166.049Z" fill="white"/>
<path d="M181.455 21.3721C179.042 21.3721 177.177 20.5825 175.859 19.0033C174.558 17.4064 173.908 15.2239 173.908 12.456C173.908 9.68797 174.558 7.50551 175.859 5.9086C177.177 4.31168 179.042 3.51322 181.455 3.51322C183.885 3.51322 185.758 4.32055 187.076 5.93521C188.411 7.53213 189.078 9.70571 189.078 12.456C189.078 15.2062 188.411 17.3798 187.076 18.9767C185.758 20.5736 183.885 21.3721 181.455 21.3721ZM181.455 19.4824C182.772 19.4824 183.713 18.9323 184.278 17.8322C184.86 16.7144 185.151 14.9223 185.151 12.456C185.151 10.0074 184.86 8.22413 184.278 7.10628C183.696 5.98844 182.755 5.42952 181.455 5.42952C180.171 5.42952 179.239 5.98844 178.657 7.10628C178.092 8.22413 177.81 10.0074 177.81 12.456C177.81 14.9223 178.092 16.7144 178.657 17.8322C179.222 18.9323 180.154 19.4824 181.455 19.4824Z" fill="white"/>
<path d="M191.981 21.0793L192.186 3.77937H196.473L201.144 16.5281H201.247L205.842 3.77937H209.82L210 21.0793H206.535L206.355 7.98459H206.278L201.632 21.0793H198.988L194.342 7.98459H194.265L194.188 21.0793H191.981Z" fill="white"/>
<path d="M59.4468 33.9083V28.4911H60.606V32.0831L60.5472 32.6248H60.564L62.6808 28.6745L62.7564 28.4911H63.8316V33.9083H62.6724V30.408L62.7228 29.8079H62.7144L60.606 33.725L60.5388 33.9083H59.4468Z" fill="white"/>
<path d="M67.0722 34C66.6354 34 66.2826 33.9361 66.0138 33.8083C65.745 33.6805 65.549 33.5444 65.4258 33.3999C65.3082 33.2555 65.2494 33.1666 65.2494 33.1332L65.6022 32.6999C65.6022 32.7165 65.6554 32.786 65.7618 32.9082C65.8738 33.0249 66.0278 33.1332 66.2238 33.2332C66.4254 33.3333 66.6606 33.3833 66.9294 33.3833C67.5398 33.3833 67.845 33.0443 67.845 32.3665C67.845 32.0109 67.7834 31.7637 67.6602 31.6248C67.5426 31.4859 67.3606 31.4164 67.1142 31.4164L66.3078 31.4831V30.8413L67.1898 30.9164C67.341 30.9108 67.4698 30.8247 67.5762 30.658C67.6882 30.4913 67.7442 30.2357 67.7442 29.8913C67.7442 29.5634 67.6826 29.3329 67.5594 29.1995C67.4362 29.0606 67.2318 28.9912 66.9462 28.9912C66.7894 28.9912 66.6242 29.0189 66.4506 29.0745C66.277 29.1245 66.1286 29.1801 66.0054 29.2412C65.8822 29.2968 65.8038 29.3329 65.7702 29.3495L65.661 28.7828C65.661 28.7773 65.7422 28.7411 65.9046 28.6745C66.067 28.6078 66.2602 28.5467 66.4842 28.4911C66.7082 28.4356 66.9378 28.4078 67.173 28.4078C67.7498 28.4078 68.195 28.5356 68.5086 28.7911C68.8222 29.0467 68.979 29.394 68.979 29.8329C68.979 30.1441 68.895 30.4052 68.727 30.6163C68.5646 30.8219 68.3574 30.9886 68.1054 31.1164C68.7998 31.2831 69.147 31.7053 69.147 32.3832C69.147 32.6999 69.0602 32.9804 68.8866 33.2249C68.713 33.4694 68.4666 33.6611 68.1474 33.8C67.8338 33.9333 67.4754 34 67.0722 34Z" fill="white"/>
<path d="M70.7576 33.9083V28.4911H73.7984V29.0912H71.9168V33.9083H70.7576Z" fill="white"/>
<path d="M77.238 34C76.4484 34 75.838 33.7527 75.4068 33.2582C74.9812 32.7582 74.7684 32.0748 74.7684 31.208C74.7684 30.3413 74.9812 29.6579 75.4068 29.1578C75.838 28.6578 76.4484 28.4078 77.238 28.4078C78.0332 28.4078 78.6464 28.6606 79.0776 29.1662C79.5144 29.6662 79.7328 30.3469 79.7328 31.208C79.7328 32.0692 79.5144 32.7499 79.0776 33.2499C78.6464 33.75 78.0332 34 77.238 34ZM77.238 33.4083C77.6692 33.4083 77.9772 33.236 78.162 32.8915C78.3524 32.5415 78.4476 31.9803 78.4476 31.208C78.4476 30.4413 78.3524 29.8829 78.162 29.5329C77.9716 29.1829 77.6636 29.0078 77.238 29.0078C76.818 29.0078 76.5128 29.1829 76.3224 29.5329C76.1376 29.8829 76.0452 30.4413 76.0452 31.208C76.0452 31.9803 76.1376 32.5415 76.3224 32.8915C76.5072 33.236 76.8124 33.4083 77.238 33.4083Z" fill="white"/>
<path d="M82.2955 33.9083V29.0912H80.8255V28.4911H84.9247V29.0912H83.4631V33.9083H82.2955Z" fill="white"/>
<path d="M88.4832 34C87.6936 34 87.0832 33.7527 86.652 33.2582C86.2264 32.7582 86.0136 32.0748 86.0136 31.208C86.0136 30.3413 86.2264 29.6579 86.652 29.1578C87.0832 28.6578 87.6936 28.4078 88.4832 28.4078C89.2784 28.4078 89.8916 28.6606 90.3228 29.1662C90.7596 29.6662 90.978 30.3469 90.978 31.208C90.978 32.0692 90.7596 32.7499 90.3228 33.2499C89.8916 33.75 89.2784 34 88.4832 34ZM88.4832 33.4083C88.9144 33.4083 89.2224 33.236 89.4072 32.8915C89.5976 32.5415 89.6928 31.9803 89.6928 31.208C89.6928 30.4413 89.5976 29.8829 89.4072 29.5329C89.2168 29.1829 88.9088 29.0078 88.4832 29.0078C88.0632 29.0078 87.758 29.1829 87.5676 29.5329C87.3828 29.8829 87.2904 30.4413 87.2904 31.208C87.2904 31.9803 87.3828 32.5415 87.5676 32.8915C87.7524 33.236 88.0576 33.4083 88.4832 33.4083Z" fill="white"/>
<path d="M92.5999 28.4911H94.2631C94.6943 28.4911 95.0527 28.5578 95.3383 28.6911C95.6295 28.8189 95.8451 28.9912 95.9851 29.2079C96.1251 29.419 96.1951 29.6496 96.1951 29.8996C96.1951 30.1774 96.1167 30.4135 95.9599 30.608C95.8087 30.8025 95.6155 30.9608 95.3803 31.083C95.6995 31.183 95.9543 31.3414 96.1447 31.5581C96.3351 31.7748 96.4303 32.0387 96.4303 32.3498C96.4303 32.8221 96.2483 33.1999 95.8843 33.4833C95.5259 33.7666 94.9995 33.9083 94.3051 33.9083H92.5999V28.4911ZM94.4479 30.8997C94.6047 30.8997 94.7447 30.8275 94.8679 30.683C94.9967 30.533 95.0611 30.2941 95.0611 29.9663C95.0611 29.644 94.9855 29.4079 94.8343 29.2579C94.6831 29.1078 94.4815 29.0328 94.2295 29.0328H93.7591V30.8997H94.4479ZM94.2799 33.3666C94.5823 33.3666 94.8203 33.2805 94.9939 33.1082C95.1675 32.9304 95.2543 32.6637 95.2543 32.3082C95.2543 31.7025 95.0051 31.3997 94.5067 31.3997H93.7591V33.3666H94.2799Z" fill="white"/>
<path d="M98.0627 33.9916C97.9283 33.9916 97.8191 33.9805 97.7351 33.9583C97.6511 33.9416 97.6091 33.9305 97.6091 33.925L97.6511 33.1916C97.6679 33.1971 97.7015 33.2055 97.7519 33.2166C97.8023 33.2277 97.8527 33.2332 97.9031 33.2332C98.2951 33.2332 98.5835 32.8638 98.7683 32.1248C98.9587 31.3803 99.0539 30.1691 99.0539 28.4911H102.036V33.9083H100.877V29.0912H99.7175C99.7119 30.7302 99.5663 31.9581 99.2807 32.7749C98.9951 33.5861 98.5891 33.9916 98.0627 33.9916Z" fill="white"/>
<path d="M104.001 33.9083V28.4911H107.277V29.0912H105.16V30.8747H107.025V31.4581H105.16V33.3082H107.395V33.9083H104.001Z" fill="white"/>
<path d="M109.078 33.9083V28.4911H110.237V30.858H112.127V28.4911H113.286V33.9083H112.127V31.4414H110.237V33.9083H109.078Z" fill="white"/>
<path d="M115.254 33.9083V28.4911H116.414V32.0831L116.355 32.6248H116.372L118.488 28.6745L118.564 28.4911H119.639V33.9083H118.48V30.408L118.53 29.8079H118.522L116.414 33.725L116.346 33.9083H115.254Z" fill="white"/>
<path d="M121.603 33.9083V28.4911H124.879V29.0912H122.762V30.8747H124.627V31.4581H122.762V33.3082H124.996V33.9083H121.603Z" fill="white"/>
<path d="M129.493 28.4911H132.559V29.0912H130.661V30.5663H131.013C131.708 30.5663 132.243 30.6997 132.618 30.9664C132.999 31.233 133.189 31.6331 133.189 32.1665C133.189 32.7165 133.007 33.1443 132.643 33.4499C132.279 33.7555 131.747 33.9083 131.047 33.9083H129.493V28.4911ZM131.03 33.3666C131.366 33.3666 131.61 33.2805 131.761 33.1082C131.912 32.936 131.988 32.6332 131.988 32.1998C131.988 31.7775 131.909 31.4886 131.753 31.3331C131.601 31.1719 131.358 31.0914 131.022 31.0914H130.661V33.3666H131.03Z" fill="white"/>
<path d="M134.321 33.9083L136.135 28.4911H137.42L139.117 33.9083H137.891L137.42 32.3915H135.522L135.026 33.9083H134.321ZM135.69 31.8664H137.261L136.513 29.3162H136.496L135.69 31.8664Z" fill="white"/>
<path d="M140.59 33.9083V28.4911H141.75V30.858H143.64V28.4911H144.799V33.9083H143.64V31.4414H141.75V33.9083H140.59Z" fill="white"/>
<path d="M146.767 28.4911H147.926V30.5663H148.321C149.01 30.5663 149.539 30.6997 149.908 30.9664C150.278 31.233 150.463 31.6331 150.463 32.1665C150.463 32.7221 150.284 33.1527 149.925 33.4583C149.572 33.7583 149.049 33.9083 148.354 33.9083H146.767V28.4911ZM148.329 33.3666C148.66 33.3666 148.898 33.2777 149.043 33.0999C149.189 32.9165 149.262 32.6165 149.262 32.1998C149.262 31.7887 149.186 31.5025 149.035 31.3414C148.884 31.1747 148.646 31.0914 148.321 31.0914H147.926V33.3666H148.329Z" fill="white"/>
</svg>
